<?xml version="1.0" encoding="UTF-8" standalone="no"?>
<svg
   xmlns:dc="http://purl.org/dc/elements/1.1/"
   xmlns:cc="http://creativecommons.org/ns#"
   xmlns:rdf="http://www.w3.org/1999/02/22-rdf-syntax-ns#"
   xmlns:svg="http://www.w3.org/2000/svg"
   xmlns="http://www.w3.org/2000/svg"
   xmlns:sodipodi="http://sodipodi.sourceforge.net/DTD/sodipodi-0.dtd"
   xmlns:inkscape="http://www.inkscape.org/namespaces/inkscape"
   height="22"
   width="22"
   id="svg2"
   version="1.1"
   inkscape:version="0.92.3 (2405546, 2018-03-11)"
   sodipodi:docname="circle-slash.svg">
  <metadata
     id="metadata10">
    <rdf:RDF>
      <cc:Work
         rdf:about="">
        <dc:format>image/svg+xml</dc:format>
        <dc:type
           rdf:resource="http://purl.org/dc/dcmitype/StillImage" />
        <dc:title></dc:title>
      </cc:Work>
    </rdf:RDF>
  </metadata>
  <defs
     id="defs8" />
  <sodipodi:namedview
     pagecolor="#ffffff"
     bordercolor="#666666"
     borderopacity="1"
     objecttolerance="10"
     gridtolerance="10"
     guidetolerance="10"
     inkscape:pageopacity="0"
     inkscape:pageshadow="2"
     inkscape:window-width="3200"
     inkscape:window-height="1671"
     id="namedview6"
     showgrid="false"
     inkscape:zoom="41.7193"
     inkscape:cx="1.0838412"
     inkscape:cy="8.8969887"
     inkscape:window-x="0"
     inkscape:window-y="55"
     inkscape:window-maximized="1"
     inkscape:current-layer="svg2"
     inkscape:pagecheckerboard="true"
     fit-margin-top="1"
     fit-margin-left="1"
     fit-margin-right="1"
     fit-margin-bottom="1" />
  <path
     d="M 11,1 C 5.48661,1 1,5.48661 1,11 1,16.51339 5.48661,21 11,21 16.51339,21 21,16.51339 21,11 21,5.48661 16.51339,1 11,1 Z m 0,1.85268 c 1.85268,0 3.57143,0.625 4.95536,1.67411 L 4.52679,15.95536 C 3.47768,14.57143 2.85268,12.85268 2.85268,11 2.85268,6.51339 6.51339,2.85268 11,2.85268 Z m 0,16.29464 c -1.85268,0 -3.57143,-0.625 -4.95536,-1.67411 L 17.47321,6.04464 c 1.04911,1.38393 1.67411,3.10268 1.67411,4.95536 0,4.48661 -3.66071,8.14732 -8.14732,8.14732 z"
     id="path4"
     style="fill:#ffffff;fill-opacity:1;stroke-width:0.02232143"
     inkscape:connector-curvature="0" />
</svg>
