<?xml version="1.0" encoding="UTF-8" standalone="no"?>
<svg
   xmlns:dc="http://purl.org/dc/elements/1.1/"
   xmlns:cc="http://creativecommons.org/ns#"
   xmlns:rdf="http://www.w3.org/1999/02/22-rdf-syntax-ns#"
   xmlns:svg="http://www.w3.org/2000/svg"
   xmlns="http://www.w3.org/2000/svg"
   xmlns:sodipodi="http://sodipodi.sourceforge.net/DTD/sodipodi-0.dtd"
   xmlns:inkscape="http://www.inkscape.org/namespaces/inkscape"
   height="22"
   width="22"
   id="svg2"
   version="1.1"
   inkscape:version="0.92.3 (2405546, 2018-03-11)"
   sodipodi:docname="diff.svg">
  <metadata
     id="metadata10">
    <rdf:RDF>
      <cc:Work
         rdf:about="">
        <dc:format>image/svg+xml</dc:format>
        <dc:type
           rdf:resource="http://purl.org/dc/dcmitype/StillImage" />
        <dc:title></dc:title>
      </cc:Work>
    </rdf:RDF>
  </metadata>
  <defs
     id="defs8" />
  <sodipodi:namedview
     pagecolor="#ffffff"
     bordercolor="#666666"
     borderopacity="1"
     objecttolerance="10"
     gridtolerance="10"
     guidetolerance="10"
     inkscape:pageopacity="0"
     inkscape:pageshadow="2"
     inkscape:window-width="3200"
     inkscape:window-height="1671"
     id="namedview6"
     showgrid="false"
     inkscape:zoom="7.375"
     inkscape:cx="-51.37288"
     inkscape:cy="-23.711864"
     inkscape:window-x="0"
     inkscape:window-y="55"
     inkscape:window-maximized="1"
     inkscape:current-layer="svg2"
     inkscape:pagecheckerboard="true"
     fit-margin-top="1"
     fit-margin-left="1"
     fit-margin-right="1"
     fit-margin-bottom="1" />
  <path
     d="m 10.23077,9.75 h 3.07692 V 11 h -3.07692 v 2.5 H 8.69231 V 11 H 5.61538 V 9.75 h 3.07693 v -2.5 h 1.53846 z m -4.61539,7.5 h 7.69231 V 16 H 5.61538 Z M 12.53846,3.5 17.92308,7.875 V 19.75 c 0,0.68359 -0.69712,1.25 -1.53846,1.25 H 2.53846 C 1.69712,21 1,20.43359 1,19.75 v -15 C 1,4.06641 1.69712,3.5 2.53846,3.5 Z m 3.84616,5 -4.61539,-3.75 H 2.53846 v 15 H 16.38462 Z M 14.07692,1 c 0,0 -8.46154,0 -8.46154,0 v 1.25 h 7.69231 l 6.15385,5 v 10 H 21 V 6.625 Z"
     id="path4"
     style="fill:#ffffff;fill-opacity:1;stroke-width:0.02166798"
     inkscape:connector-curvature="0" />
</svg>
