<svg width="22" height="22" version="1.1" viewBox="0 0 22 22" xmlns="http://www.w3.org/2000/svg">
<path fill="#ffffff"
  d="M 11,4.5897439 C 11,3.3931626 11,2.1965813 11,1 8.9166667,2.7094019 6.8333335,4.4188037 4.7500002,6.1282056 6.8333335,7.8376074 8.9166667,9.5470092 11,11.256411 11,9.7179494 11,8.1794877 11,6.6410261 13.962085,6.609694 17.169706,8.2085902 18.214226,11.115154 19.040791,13.331235 18.0206,15.880789 16.167934,17.244346 12.786821,19.887799 7.2441671,19.45396 4.5897867,15.979622 3.9058923,15.067314 3.4947809,13.940034 3.5000001,12.794873 c -0.8333334,0 -1.6666667,0 -2.5000001,0 -0.0245994,3.228269 2.3895004,5.982825 5.2435304,7.211038 4.2455996,1.899919 9.7613476,1.082924 12.9051506,-2.469349 1.878003,-2.051797 2.433347,-5.23856 1.154804,-7.7425767 C 18.621108,6.3677442 14.690655,4.5715306 11,4.5897439 Z"/>
</svg>
