<svg width="22" height="22" version="1.1" viewBox="0 0 22 22" xmlns="http://www.w3.org/2000/svg">
  <path fill="#ffffff"
     d="m 5,4 c 0,0 0,0 1,0 0,-1 0,-2 0,-2 4,0 9,0 14,0 0,4 0,9 0,14 -1,0 -2,0 -2,0 0,0 0,1 0,1 1,0 2,0 3,0 0,-5 0,-11 0,-16 -5,0 -11,0 -16,0 0,1 0,2 0,3 z"/>
  <path fill="#ffffff"
     d="m 1,5 c 0,5 0,10 0,16 0,0 1,0 1,0 5,0 10,0 15,0 0,0 0,-1 0,-1 0,-5 0,-10 0,-15 C 17,5 16,5 16,5 11,5 6,5 1,5 1,5 1,5 1,5 Z m 1,1 c 5,0 10,0 14,0 0,5 0,10 0,14 -5,0 -10,0 -14,0 0,-5 0,-10 0,-14 z"/>
</svg>
