<?xml version="1.0" encoding="UTF-8" standalone="no"?>
<!-- Generator: Adobe Illustrator 16.0.0, SVG Export Plug-In . SVG Version: 6.00 Build 0)  -->

<svg
   xmlns:dc="http://purl.org/dc/elements/1.1/"
   xmlns:cc="http://creativecommons.org/ns#"
   xmlns:rdf="http://www.w3.org/1999/02/22-rdf-syntax-ns#"
   xmlns:svg="http://www.w3.org/2000/svg"
   xmlns="http://www.w3.org/2000/svg"
   xmlns:sodipodi="http://sodipodi.sourceforge.net/DTD/sodipodi-0.dtd"
   xmlns:inkscape="http://www.inkscape.org/namespaces/inkscape"
   version="1.1"
   id="Capa_1"
   x="0px"
   y="0px"
   width="22"
   height="22.000002"
   viewBox="0 0 22 22.000002"
   xml:space="preserve"
   inkscape:version="0.92.3 (2405546, 2018-03-11)"
   sodipodi:docname="edit-undo.svg"><metadata
     id="metadata42"><rdf:RDF><cc:Work
         rdf:about=""><dc:format>image/svg+xml</dc:format><dc:type
           rdf:resource="http://purl.org/dc/dcmitype/StillImage" /><dc:title></dc:title></cc:Work></rdf:RDF></metadata><defs
     id="defs40" /><sodipodi:namedview
     pagecolor="#ffffff"
     bordercolor="#666666"
     borderopacity="1"
     objecttolerance="10"
     gridtolerance="10"
     guidetolerance="10"
     inkscape:pageopacity="0"
     inkscape:pageshadow="2"
     inkscape:window-width="3200"
     inkscape:window-height="1671"
     id="namedview38"
     showgrid="false"
     inkscape:zoom="30.375063"
     inkscape:cx="4.7808796"
     inkscape:cy="5.9958984"
     inkscape:window-x="0"
     inkscape:window-y="55"
     inkscape:window-maximized="1"
     inkscape:current-layer="Capa_1"
     fit-margin-top="1"
     fit-margin-left="1"
     fit-margin-right="1"
     fit-margin-bottom="1"
     inkscape:pagecheckerboard="true"
     inkscape:showpageshadow="false" /><g
     id="g3"
     style="fill:#ffffff;fill-opacity:1"
     transform="matrix(0.04901961,0,0,0.04022122,-1.1875001,1)"><g
       id="undo"
       style="fill:#ffffff;fill-opacity:1"><path
         d="M 248.625,89.25 V 0 l -127.5,127.5 127.5,127.5 V 140.25 c 84.15,0 153,68.85 153,153 0,84.15 -68.85,153 -153,153 -84.15,0 -153,-68.85 -153,-153 h -51 c 0,112.2 91.8,204 204,204 112.2,0 204,-91.8 204,-204 0,-112.2 -91.8,-204 -204,-204 z"
         id="path6"
         style="fill:#ffffff;fill-opacity:1"
         inkscape:connector-curvature="0" /></g></g><g
     id="g8"
     style="fill:#ffffff;fill-opacity:1"
     transform="matrix(0.04901961,0,0,0.04022122,-1.1875001,1)" /><g
     id="g10"
     style="fill:#ffffff;fill-opacity:1"
     transform="matrix(0.04901961,0,0,0.04022122,-1.1875001,1)" /><g
     id="g12"
     style="fill:#ffffff;fill-opacity:1"
     transform="matrix(0.04901961,0,0,0.04022122,-1.1875001,1)" /><g
     id="g14"
     style="fill:#ffffff;fill-opacity:1"
     transform="matrix(0.04901961,0,0,0.04022122,-1.1875001,1)" /><g
     id="g16"
     style="fill:#ffffff;fill-opacity:1"
     transform="matrix(0.04901961,0,0,0.04022122,-1.1875001,1)" /><g
     id="g18"
     style="fill:#ffffff;fill-opacity:1"
     transform="matrix(0.04901961,0,0,0.04022122,-1.1875001,1)" /><g
     id="g20"
     style="fill:#ffffff;fill-opacity:1"
     transform="matrix(0.04901961,0,0,0.04022122,-1.1875001,1)" /><g
     id="g22"
     style="fill:#ffffff;fill-opacity:1"
     transform="matrix(0.04901961,0,0,0.04022122,-1.1875001,1)" /><g
     id="g24"
     style="fill:#ffffff;fill-opacity:1"
     transform="matrix(0.04901961,0,0,0.04022122,-1.1875001,1)" /><g
     id="g26"
     style="fill:#ffffff;fill-opacity:1"
     transform="matrix(0.04901961,0,0,0.04022122,-1.1875001,1)" /><g
     id="g28"
     style="fill:#ffffff;fill-opacity:1"
     transform="matrix(0.04901961,0,0,0.04022122,-1.1875001,1)" /><g
     id="g30"
     style="fill:#ffffff;fill-opacity:1"
     transform="matrix(0.04901961,0,0,0.04022122,-1.1875001,1)" /><g
     id="g32"
     style="fill:#ffffff;fill-opacity:1"
     transform="matrix(0.04901961,0,0,0.04022122,-1.1875001,1)" /><g
     id="g34"
     style="fill:#ffffff;fill-opacity:1"
     transform="matrix(0.04901961,0,0,0.04022122,-1.1875001,1)" /><g
     id="g36"
     style="fill:#ffffff;fill-opacity:1"
     transform="matrix(0.04901961,0,0,0.04022122,-1.1875001,1)" /></svg>