<?xml version="1.0" encoding="UTF-8" standalone="no"?>
<!-- Generator: Adobe Illustrator 16.0.0, SVG Export Plug-In . SVG Version: 6.00 Build 0)  -->

<svg
   xmlns:dc="http://purl.org/dc/elements/1.1/"
   xmlns:cc="http://creativecommons.org/ns#"
   xmlns:rdf="http://www.w3.org/1999/02/22-rdf-syntax-ns#"
   xmlns:svg="http://www.w3.org/2000/svg"
   xmlns="http://www.w3.org/2000/svg"
   xmlns:sodipodi="http://sodipodi.sourceforge.net/DTD/sodipodi-0.dtd"
   xmlns:inkscape="http://www.inkscape.org/namespaces/inkscape"
   version="1.1"
   id="Capa_1"
   x="0px"
   y="0px"
   width="612px"
   height="612px"
   viewBox="0 0 612 612"
   style="enable-background:new 0 0 612 612;"
   xml:space="preserve"
   inkscape:version="0.91 r13725"
   sodipodi:docname="edit-copy.svg"><metadata
     id="metadata15"><rdf:RDF><cc:Work
         rdf:about=""><dc:format>image/svg+xml</dc:format><dc:type
           rdf:resource="http://purl.org/dc/dcmitype/StillImage" /></cc:Work></rdf:RDF></metadata><defs
     id="defs13" /><sodipodi:namedview
     pagecolor="#ffffff"
     bordercolor="#666666"
     borderopacity="1"
     objecttolerance="10"
     gridtolerance="10"
     guidetolerance="10"
     inkscape:pageopacity="0"
     inkscape:pageshadow="2"
     inkscape:window-width="716"
     inkscape:window-height="480"
     id="namedview11"
     showgrid="false"
     inkscape:zoom="0.38562092"
     inkscape:cx="306"
     inkscape:cy="306"
     inkscape:window-x="0"
     inkscape:window-y="27"
     inkscape:window-maximized="0"
     inkscape:current-layer="Capa_1" /><g
     id="g3"
     style="fill:#ffffff;fill-opacity:1"><g
       id="g5"
       style="fill:#ffffff;fill-opacity:1"><polygon
         points="515.368,450.947 515.368,483.158 612,483.158 612,0 128.842,0 128.842,96.632 161.053,96.632 161.053,32.21     579.789,32.21 579.789,450.947   "
         id="polygon7"
         style="fill:#ffffff;fill-opacity:1" /><path
         d="M0,134.189v472.464C0,609.616,2.963,612,6.635,612H476.49c3.704,0,6.668-2.384,6.668-5.347V134.189    c0-2.963-2.964-5.347-6.636-5.347H6.635C2.963,128.842,0,131.226,0,134.189z M32.21,161.053h418.737v418.736H32.21V161.053z"
         id="path9"
         style="fill:#ffffff;fill-opacity:1" /></g></g></svg>