<?xml version="1.0" encoding="UTF-8" standalone="no"?>
<!-- Generator: Adobe Illustrator 16.0.0, SVG Export Plug-In . SVG Version: 6.00 Build 0)  -->

<svg
   xmlns:dc="http://purl.org/dc/elements/1.1/"
   xmlns:cc="http://creativecommons.org/ns#"
   xmlns:rdf="http://www.w3.org/1999/02/22-rdf-syntax-ns#"
   xmlns:svg="http://www.w3.org/2000/svg"
   xmlns="http://www.w3.org/2000/svg"
   xmlns:sodipodi="http://sodipodi.sourceforge.net/DTD/sodipodi-0.dtd"
   xmlns:inkscape="http://www.inkscape.org/namespaces/inkscape"
   version="1.1"
   id="Capa_1"
   x="0px"
   y="0px"
   width="459px"
   height="459px"
   viewBox="0 0 459 459"
   style="enable-background:new 0 0 459 459;"
   xml:space="preserve"
   inkscape:version="0.91 r13725"
   sodipodi:docname="edit-select-all.svg"><metadata
     id="metadata42"><rdf:RDF><cc:Work
         rdf:about=""><dc:format>image/svg+xml</dc:format><dc:type
           rdf:resource="http://purl.org/dc/dcmitype/StillImage" /></cc:Work></rdf:RDF></metadata><defs
     id="defs40" /><sodipodi:namedview
     pagecolor="#ffffff"
     bordercolor="#666666"
     borderopacity="1"
     objecttolerance="10"
     gridtolerance="10"
     guidetolerance="10"
     inkscape:pageopacity="0"
     inkscape:pageshadow="2"
     inkscape:window-width="716"
     inkscape:window-height="480"
     id="namedview38"
     showgrid="false"
     inkscape:zoom="0.51416122"
     inkscape:cx="229.5"
     inkscape:cy="229.5"
     inkscape:window-x="0"
     inkscape:window-y="27"
     inkscape:window-maximized="0"
     inkscape:current-layer="Capa_1" /><g
     id="g3"
     style="fill:#ffffff;fill-opacity:1"><g
       id="select-all"
       style="fill:#ffffff;fill-opacity:1"><path
         d="M0,51h51V0C22.95,0,0,22.95,0,51z M0,255h51v-51H0V255z M102,459h51v-51h-51V459z M0,153h51v-51H0V153z M255,0h-51v51h51    V0z M408,0v51h51C459,22.95,436.05,0,408,0z M51,459v-51H0C0,436.05,22.95,459,51,459z M0,357h51v-51H0V357z M153,0h-51v51h51V0z     M204,459h51v-51h-51V459z M408,255h51v-51h-51V255z M408,459c28.05,0,51-22.95,51-51h-51V459z M408,153h51v-51h-51V153z M408,357    h51v-51h-51V357z M306,459h51v-51h-51V459z M306,51h51V0h-51V51z M102,357h255V102H102V357z M153,153h153v153H153V153z"
         id="path6"
         style="fill:#ffffff;fill-opacity:1" /></g></g><g
     id="g8"
     style="fill:#ffffff;fill-opacity:1" /><g
     id="g10"
     style="fill:#ffffff;fill-opacity:1" /><g
     id="g12"
     style="fill:#ffffff;fill-opacity:1" /><g
     id="g14"
     style="fill:#ffffff;fill-opacity:1" /><g
     id="g16"
     style="fill:#ffffff;fill-opacity:1" /><g
     id="g18"
     style="fill:#ffffff;fill-opacity:1" /><g
     id="g20"
     style="fill:#ffffff;fill-opacity:1" /><g
     id="g22"
     style="fill:#ffffff;fill-opacity:1" /><g
     id="g24"
     style="fill:#ffffff;fill-opacity:1" /><g
     id="g26"
     style="fill:#ffffff;fill-opacity:1" /><g
     id="g28"
     style="fill:#ffffff;fill-opacity:1" /><g
     id="g30"
     style="fill:#ffffff;fill-opacity:1" /><g
     id="g32"
     style="fill:#ffffff;fill-opacity:1" /><g
     id="g34"
     style="fill:#ffffff;fill-opacity:1" /><g
     id="g36"
     style="fill:#ffffff;fill-opacity:1" /></svg>