<svg width="22" height="22" version="1.1" viewBox="0 0 22 22" xmlns="http://www.w3.org/2000/svg"><path d="m0 0h22v22h-22z" fill="none" style="stroke-width:.91667"/><path d="m17.417 1.8333h-3.8317c-.385-1.0633-1.3933-1.8333-2.585-1.8333-1.1917 0-2.2.77-2.585 1.8333h-3.8317c-1.0083 0-1.8333.825-1.8333 1.8333v14.667c0 1.0083.825 1.8333 1.8333 1.8333h12.833c1.0083 0 1.8333-.825 1.8333-1.8333v-14.667c0-1.0083-.825-1.8333-1.8333-1.8333zm-6.4167 0c.50417 0 .91667.4125.91667.91667s-.4125.91667-.91667.91667-.91667-.4125-.91667-.91667.4125-.91667.91667-.91667zm6.4167 16.5h-12.833v-14.667h1.8333v2.75h9.1667v-2.75h1.8333z" style="stroke-width:.91667;fill:#ffffff"/></svg>
