<svg width="22" height="22" version="1.1" viewBox="0 0 22 22" xmlns="http://www.w3.org/2000/svg">
<path d="M 11.07812,4 C 4.75,4 1,11 1,11 1,11 4.75,18 11.07812,18 17.25,18 21,11 21,11 21,11 17.25,4 11.07812,4 Z M 11,15.66667 C 8.24609,15.66667 6,13.58854 6,11 6,8.42968 8.24609,6.33333 11,6.33333 c 2.77344,0 5,2.09635 5,4.66667 0,2.58854 -2.22656,4.66667 -5,4.66667 z M 13.5,11 c 0,1.29427 -1.11328,2.33333 -2.5,2.33333 -1.38672,0 -2.5,-1.03906 -2.5,-2.33333 0,-1.29427 1.11328,-2.33333 2.5,-2.33333 1.38672,0 2.5,1.03906 2.5,2.33333 z"
  fill="#ffffff"/>
</svg>
