<?xml version="1.0" encoding="UTF-8" standalone="no"?>
<svg
   xmlns:dc="http://purl.org/dc/elements/1.1/"
   xmlns:cc="http://creativecommons.org/ns#"
   xmlns:rdf="http://www.w3.org/1999/02/22-rdf-syntax-ns#"
   xmlns:svg="http://www.w3.org/2000/svg"
   xmlns="http://www.w3.org/2000/svg"
   xmlns:sodipodi="http://sodipodi.sourceforge.net/DTD/sodipodi-0.dtd"
   xmlns:inkscape="http://www.inkscape.org/namespaces/inkscape"
   height="22"
   width="22"
   id="svg2"
   version="1.1"
   inkscape:version="0.92.3 (2405546, 2018-03-11)"
   sodipodi:docname="file-zip.svg">
  <metadata
     id="metadata10">
    <rdf:RDF>
      <cc:Work
         rdf:about="">
        <dc:format>image/svg+xml</dc:format>
        <dc:type
           rdf:resource="http://purl.org/dc/dcmitype/StillImage" />
        <dc:title></dc:title>
      </cc:Work>
    </rdf:RDF>
  </metadata>
  <defs
     id="defs8" />
  <sodipodi:namedview
     pagecolor="#ffffff"
     bordercolor="#666666"
     borderopacity="1"
     objecttolerance="10"
     gridtolerance="10"
     guidetolerance="10"
     inkscape:pageopacity="0"
     inkscape:pageshadow="2"
     inkscape:window-width="3200"
     inkscape:window-height="1671"
     id="namedview6"
     showgrid="false"
     inkscape:zoom="14.75"
     inkscape:cx="11.229905"
     inkscape:cy="11.269817"
     inkscape:window-x="0"
     inkscape:window-y="55"
     inkscape:window-maximized="1"
     inkscape:current-layer="svg2"
     inkscape:pagecheckerboard="true"
     inkscape:showpageshadow="false"
     fit-margin-left="1"
     fit-margin-top="1"
     fit-margin-right="1"
     fit-margin-bottom="1" />
  <path
     d="m 15.16667,1 h -12.5 C 1.75521,1 1,1.64732 1,2.42857 V 19.57143 C 1,20.35268 1.75521,21 2.66667,21 H 19.33333 C 20.24479,21 21,20.35268 21,19.57143 V 6 Z m 4.16666,18.57143 H 2.66667 V 2.42857 h 5 V 3.85714 H 9.33333 V 2.42857 h 5 l 5,4.28572 z m -10,-14.28572 V 3.85714 H 11 v 1.42857 z m -1.66666,0 H 9.33333 V 6.71429 H 7.66667 Z M 9.33333,8.14286 V 6.71429 H 11 v 1.42857 z m -1.66666,0 H 9.33333 V 9.57143 H 7.66667 Z M 9.33333,11 V 9.57143 H 11 V 11 Z M 7.66667,12.83036 C 6.67708,13.32143 6,14.23661 6,15.28571 v 1.42858 h 6.66667 v -1.42858 c 0,-1.58482 -1.48438,-2.85714 -3.33334,-2.85714 V 11 H 7.66667 Z M 11,13.85714 v 1.42857 H 7.66667 v -1.42857 z"
     id="path4"
     style="fill:#ffffff;fill-opacity:1;stroke-width:0.0241099"
     inkscape:connector-curvature="0" />
</svg>
