<svg width="22" height="22" version="1.1" viewBox="0 0 22 22" xmlns="http://www.w3.org/2000/svg">
<path fill="#ffffff" d="m 21,8.0588233 c -1.904762,0 -3.809523,0 -5.714285,0 0,-2.3529411 0,-4.7058822 0,-7.0588233 -2.857143,0 -5.7142861,0 -8.5714292,0 0,2.3529411 0,4.7058822 0,7.0588233 -1.9047619,0 -3.8095239,0 -5.71428582,0 C 4.3333333,10.803921 7.6666667,13.549019 11,16.294117 14.333333,13.549019 17.666667,10.803921 21,8.0588233 Z M 0.99999998,18.647058 c 0,0.784314 0,1.568627 0,2.352941 6.66666672,0 13.33333302,0 20.00000002,0 0,-0.784314 0,-1.568627 0,-2.352941 -6.666667,0 -13.3333333,0 -20.00000002,0 z"/>
</svg>
