<svg width="22" height="22" version="1.1" viewBox="0 0 22 22" xmlns="http://www.w3.org/2000/svg">
<path d="M 14.333375,11.769241 H 11.6667 V 8.692322 c 0,-0.4246163 -0.299998,-0.7692177 -0.666658,-0.7692177 -0.368002,0 -0.666658,0.3446014 -0.666658,0.7692177 v 3.076919 H 7.6667086 c -0.3680024,0 -0.6666583,0.346151 -0.6666583,0.769218 0,0.423067 0.2986559,0.769218 0.6666583,0.769218 h 2.6666754 v 3.076919 c 0,0.423067 0.298656,0.769217 0.666658,0.769217 0.36666,0 0.666658,-0.34615 0.666658,-0.769217 v -3.076919 h 2.666675 c 0.36666,0 0.666659,-0.346151 0.666659,-0.769218 0,-0.423067 -0.299999,-0.769218 -0.666659,-0.769218 z m 5.33335,-10.769243 h -4.688003 c -0.737347,0 -1.584021,0.4323128 -1.978663,1.5384354 0,0 -0.173346,1.4107891 -1.333317,1.5384358 H 2.3333166 C 1.5973537,4.0769176 1,4.7415302 1,5.5907628 V 19.461514 c 0,0.849233 0.5973537,1.538484 1.3333166,1.538484 H 19.666683 C 20.402688,20.999998 21,20.310747 21,19.461514 V 2.5384818 C 21.000042,1.6892492 20.40273,0.999998 19.666725,0.999998 Z m 0,4.5907648 V 19.461514 H 2.3333166 V 5.6154014 H 11.6667 l 0.127996,-0.0077 c 1.250671,-0.1369402 2.024013,-1.1477032 2.380017,-2.1861548 0.346649,-1.0030665 0.950673,-0.8830683 0.950673,-0.8830683 h 4.541339 z"
  fill="#ffffff"/>
</svg>
