<?xml version="1.0" encoding="UTF-8" standalone="no"?>
<!-- Generator: Adobe Illustrator 19.0.0, SVG Export Plug-In . SVG Version: 6.00 Build 0)  -->

<svg
   xmlns:dc="http://purl.org/dc/elements/1.1/"
   xmlns:cc="http://creativecommons.org/ns#"
   xmlns:rdf="http://www.w3.org/1999/02/22-rdf-syntax-ns#"
   xmlns:svg="http://www.w3.org/2000/svg"
   xmlns="http://www.w3.org/2000/svg"
   xmlns:sodipodi="http://sodipodi.sourceforge.net/DTD/sodipodi-0.dtd"
   xmlns:inkscape="http://www.inkscape.org/namespaces/inkscape"
   version="1.1"
   id="Capa_1"
   x="0px"
   y="0px"
   viewBox="0 0 476.737 476.737"
   style="enable-background:new 0 0 476.737 476.737;"
   xml:space="preserve"
   inkscape:version="0.91 r13725"
   sodipodi:docname="folder-new.svg"><metadata
     id="metadata49"><rdf:RDF><cc:Work
         rdf:about=""><dc:format>image/svg+xml</dc:format><dc:type
           rdf:resource="http://purl.org/dc/dcmitype/StillImage" /></cc:Work></rdf:RDF></metadata><defs
     id="defs47" /><sodipodi:namedview
     pagecolor="#ffffff"
     bordercolor="#666666"
     borderopacity="1"
     objecttolerance="10"
     gridtolerance="10"
     guidetolerance="10"
     inkscape:pageopacity="0"
     inkscape:pageshadow="2"
     inkscape:window-width="716"
     inkscape:window-height="480"
     id="namedview45"
     showgrid="false"
     inkscape:zoom="0.49503185"
     inkscape:cx="238.3685"
     inkscape:cy="238.3685"
     inkscape:window-x="0"
     inkscape:window-y="27"
     inkscape:window-maximized="0"
     inkscape:current-layer="Capa_1" /><g
     id="g3"
     style="fill:#ffffff;fill-opacity:1"><g
       id="g5"
       style="fill:#ffffff;fill-opacity:1"><g
         id="g7"
         style="fill:#ffffff;fill-opacity:1"><g
           id="g9"
           style="fill:#ffffff;fill-opacity:1"><path
             style="fill:#ffffff;fill-opacity:1"
             d="M444.955,31.782H333.208c-17.576,0-37.758,8.931-47.165,31.782c0,0-4.132,29.145-31.782,31.782      H31.782C14.239,95.347,0,109.077,0,126.621v286.551c0,17.544,14.239,31.783,31.782,31.783h413.172      c17.544,0,31.782-14.239,31.782-31.783V63.565C476.737,46.021,462.499,31.782,444.955,31.782z M444.955,126.621v286.551H31.782      V127.13H254.26l3.051-0.159c29.812-2.829,48.246-23.71,56.732-45.163c8.263-20.722,22.661-18.243,22.661-18.243h108.251V126.621      z"
             id="path11" /><path
             style="fill:#ffffff;fill-opacity:1"
             d="M317.825,254.26H254.26v-63.565c0-8.772-7.151-15.891-15.891-15.891      c-8.772,0-15.891,7.119-15.891,15.891v63.565h-63.565c-8.772,0-15.891,7.151-15.891,15.891s7.119,15.891,15.891,15.891h63.565      v63.565c0,8.74,7.119,15.891,15.891,15.891c8.74,0,15.891-7.151,15.891-15.891v-63.565h63.565      c8.74,0,15.891-7.151,15.891-15.891S326.565,254.26,317.825,254.26z"
             id="path13" /></g></g></g></g><g
     id="g15"
     style="fill:#ffffff;fill-opacity:1" /><g
     id="g17"
     style="fill:#ffffff;fill-opacity:1" /><g
     id="g19"
     style="fill:#ffffff;fill-opacity:1" /><g
     id="g21"
     style="fill:#ffffff;fill-opacity:1" /><g
     id="g23"
     style="fill:#ffffff;fill-opacity:1" /><g
     id="g25"
     style="fill:#ffffff;fill-opacity:1" /><g
     id="g27"
     style="fill:#ffffff;fill-opacity:1" /><g
     id="g29"
     style="fill:#ffffff;fill-opacity:1" /><g
     id="g31"
     style="fill:#ffffff;fill-opacity:1" /><g
     id="g33"
     style="fill:#ffffff;fill-opacity:1" /><g
     id="g35"
     style="fill:#ffffff;fill-opacity:1" /><g
     id="g37"
     style="fill:#ffffff;fill-opacity:1" /><g
     id="g39"
     style="fill:#ffffff;fill-opacity:1" /><g
     id="g41"
     style="fill:#ffffff;fill-opacity:1" /><g
     id="g43"
     style="fill:#ffffff;fill-opacity:1" /></svg>