<?xml version="1.0" encoding="UTF-8" standalone="no"?>
<!-- Generator: Adobe Illustrator 19.0.0, SVG Export Plug-In . SVG Version: 6.00 Build 0)  -->

<svg
   xmlns:dc="http://purl.org/dc/elements/1.1/"
   xmlns:cc="http://creativecommons.org/ns#"
   xmlns:rdf="http://www.w3.org/1999/02/22-rdf-syntax-ns#"
   xmlns:svg="http://www.w3.org/2000/svg"
   xmlns="http://www.w3.org/2000/svg"
   xmlns:sodipodi="http://sodipodi.sourceforge.net/DTD/sodipodi-0.dtd"
   xmlns:inkscape="http://www.inkscape.org/namespaces/inkscape"
   version="1.1"
   id="Capa_1"
   x="0px"
   y="0px"
   viewBox="0 0 22.000002 21.999999"
   xml:space="preserve"
   inkscape:version="0.92.3 (2405546, 2018-03-11)"
   sodipodi:docname="folder.svg"
   width="22.000002"
   height="21.999998"><metadata
     id="metadata45"><rdf:RDF><cc:Work
         rdf:about=""><dc:format>image/svg+xml</dc:format><dc:type
           rdf:resource="http://purl.org/dc/dcmitype/StillImage" /><dc:title></dc:title></cc:Work></rdf:RDF></metadata><defs
     id="defs43" /><sodipodi:namedview
     pagecolor="#ffffff"
     bordercolor="#666666"
     borderopacity="1"
     objecttolerance="10"
     gridtolerance="10"
     guidetolerance="10"
     inkscape:pageopacity="0"
     inkscape:pageshadow="2"
     inkscape:window-width="716"
     inkscape:window-height="480"
     id="namedview41"
     showgrid="false"
     inkscape:zoom="0.46409188"
     inkscape:cx="254.25999"
     inkscape:cy="254.25999"
     inkscape:window-x="0"
     inkscape:window-y="27"
     inkscape:window-maximized="0"
     inkscape:current-layer="Capa_1"
     fit-margin-top="1"
     fit-margin-left="1"
     fit-margin-right="1"
     fit-margin-bottom="1"
     inkscape:pagecheckerboard="true" /><g
     id="g3"
     style="fill:#ffffff;fill-opacity:1"
     transform="matrix(0.0393299,0,0,0.04840587,1,-1.3077014)"><g
       id="g5"
       style="fill:#ffffff;fill-opacity:1"><g
         id="g7"
         style="fill:#ffffff;fill-opacity:1"><path
           style="fill:#ffffff;fill-opacity:1"
           d="m 476.737,47.674 h -143.53 c -17.576,0 -37.758,8.931 -47.165,31.782 0,0 -4.132,29.145 -31.782,31.782 H 31.782 C 14.239,111.239 0,124.969 0,142.513 v 286.551 c 0,17.544 14.239,31.783 31.782,31.783 h 444.955 c 17.544,0 31.782,-14.239 31.782,-31.783 V 79.456 C 508.52,61.912 494.281,47.674 476.737,47.674 Z m 0,94.839 V 429.064 H 31.782 V 143.021 H 254.26 l 3.051,-0.159 c 29.812,-2.829 48.246,-23.678 56.732,-45.131 8.263,-20.754 22.661,-18.275 22.661,-18.275 h 140.034 v 63.057 z"
           id="path9"
           inkscape:connector-curvature="0" /></g></g></g><g
     id="g11"
     style="fill:#ffffff;fill-opacity:1"
     transform="matrix(0.0393299,0,0,0.04840587,1,-1.3077014)" /><g
     id="g13"
     style="fill:#ffffff;fill-opacity:1"
     transform="matrix(0.0393299,0,0,0.04840587,1,-1.3077014)" /><g
     id="g15"
     style="fill:#ffffff;fill-opacity:1"
     transform="matrix(0.0393299,0,0,0.04840587,1,-1.3077014)" /><g
     id="g17"
     style="fill:#ffffff;fill-opacity:1"
     transform="matrix(0.0393299,0,0,0.04840587,1,-1.3077014)" /><g
     id="g19"
     style="fill:#ffffff;fill-opacity:1"
     transform="matrix(0.0393299,0,0,0.04840587,1,-1.3077014)" /><g
     id="g21"
     style="fill:#ffffff;fill-opacity:1"
     transform="matrix(0.0393299,0,0,0.04840587,1,-1.3077014)" /><g
     id="g23"
     style="fill:#ffffff;fill-opacity:1"
     transform="matrix(0.0393299,0,0,0.04840587,1,-1.3077014)" /><g
     id="g25"
     style="fill:#ffffff;fill-opacity:1"
     transform="matrix(0.0393299,0,0,0.04840587,1,-1.3077014)" /><g
     id="g27"
     style="fill:#ffffff;fill-opacity:1"
     transform="matrix(0.0393299,0,0,0.04840587,1,-1.3077014)" /><g
     id="g29"
     style="fill:#ffffff;fill-opacity:1"
     transform="matrix(0.0393299,0,0,0.04840587,1,-1.3077014)" /><g
     id="g31"
     style="fill:#ffffff;fill-opacity:1"
     transform="matrix(0.0393299,0,0,0.04840587,1,-1.3077014)" /><g
     id="g33"
     style="fill:#ffffff;fill-opacity:1"
     transform="matrix(0.0393299,0,0,0.04840587,1,-1.3077014)" /><g
     id="g35"
     style="fill:#ffffff;fill-opacity:1"
     transform="matrix(0.0393299,0,0,0.04840587,1,-1.3077014)" /><g
     id="g37"
     style="fill:#ffffff;fill-opacity:1"
     transform="matrix(0.0393299,0,0,0.04840587,1,-1.3077014)" /><g
     id="g39"
     style="fill:#ffffff;fill-opacity:1"
     transform="matrix(0.0393299,0,0,0.04840587,1,-1.3077014)" /></svg>