<?xml version="1.0" encoding="UTF-8" standalone="no"?>
<!-- Generator: Adobe Illustrator 19.0.0, SVG Export Plug-In . SVG Version: 6.00 Build 0)  -->

<svg
   xmlns:dc="http://purl.org/dc/elements/1.1/"
   xmlns:cc="http://creativecommons.org/ns#"
   xmlns:rdf="http://www.w3.org/1999/02/22-rdf-syntax-ns#"
   xmlns:svg="http://www.w3.org/2000/svg"
   xmlns="http://www.w3.org/2000/svg"
   xmlns:sodipodi="http://sodipodi.sourceforge.net/DTD/sodipodi-0.dtd"
   xmlns:inkscape="http://www.inkscape.org/namespaces/inkscape"
   version="1.1"
   id="Capa_1"
   x="0px"
   y="0px"
   viewBox="0 0 22 21.999998"
   xml:space="preserve"
   inkscape:version="0.92.3 (2405546, 2018-03-11)"
   sodipodi:docname="folder-new.svg"
   width="22"
   height="21.999998"><metadata
     id="metadata49"><rdf:RDF><cc:Work
         rdf:about=""><dc:format>image/svg+xml</dc:format><dc:type
           rdf:resource="http://purl.org/dc/dcmitype/StillImage" /><dc:title></dc:title></cc:Work></rdf:RDF></metadata><defs
     id="defs47" /><sodipodi:namedview
     pagecolor="#ffffff"
     bordercolor="#666666"
     borderopacity="1"
     objecttolerance="10"
     gridtolerance="10"
     guidetolerance="10"
     inkscape:pageopacity="0"
     inkscape:pageshadow="2"
     inkscape:window-width="716"
     inkscape:window-height="480"
     id="namedview45"
     showgrid="false"
     inkscape:zoom="0.49503185"
     inkscape:cx="238.3685"
     inkscape:cy="238.3685"
     inkscape:window-x="0"
     inkscape:window-y="27"
     inkscape:window-maximized="0"
     inkscape:current-layer="Capa_1"
     fit-margin-top="1"
     fit-margin-left="1"
     fit-margin-right="1"
     fit-margin-bottom="1"
     inkscape:pagecheckerboard="true" /><g
     id="g3"
     style="fill:#ffffff;fill-opacity:1"
     transform="matrix(0.04195194,0,0,0.04840587,1,-0.53843536)"><g
       id="g5"
       style="fill:#ffffff;fill-opacity:1"><g
         id="g7"
         style="fill:#ffffff;fill-opacity:1"><g
           id="g9"
           style="fill:#ffffff;fill-opacity:1"><path
             style="fill:#ffffff;fill-opacity:1"
             d="M 444.955,31.782 H 333.208 c -17.576,0 -37.758,8.931 -47.165,31.782 0,0 -4.132,29.145 -31.782,31.782 H 31.782 C 14.239,95.347 0,109.077 0,126.621 v 286.551 c 0,17.544 14.239,31.783 31.782,31.783 h 413.172 c 17.544,0 31.782,-14.239 31.782,-31.783 V 63.565 C 476.737,46.021 462.499,31.782 444.955,31.782 Z m 0,94.839 V 413.172 H 31.782 V 127.13 H 254.26 l 3.051,-0.159 c 29.812,-2.829 48.246,-23.71 56.732,-45.163 8.263,-20.722 22.661,-18.243 22.661,-18.243 h 108.251 z"
             id="path11"
             inkscape:connector-curvature="0" /><path
             style="fill:#ffffff;fill-opacity:1"
             d="M 317.825,254.26 H 254.26 v -63.565 c 0,-8.772 -7.151,-15.891 -15.891,-15.891 -8.772,0 -15.891,7.119 -15.891,15.891 v 63.565 h -63.565 c -8.772,0 -15.891,7.151 -15.891,15.891 0,8.74 7.119,15.891 15.891,15.891 h 63.565 v 63.565 c 0,8.74 7.119,15.891 15.891,15.891 8.74,0 15.891,-7.151 15.891,-15.891 v -63.565 h 63.565 c 8.74,0 15.891,-7.151 15.891,-15.891 0,-8.74 -7.151,-15.891 -15.891,-15.891 z"
             id="path13"
             inkscape:connector-curvature="0" /></g></g></g></g><g
     id="g15"
     style="fill:#ffffff;fill-opacity:1"
     transform="matrix(0.04195194,0,0,0.04840587,1,-0.53843536)" /><g
     id="g17"
     style="fill:#ffffff;fill-opacity:1"
     transform="matrix(0.04195194,0,0,0.04840587,1,-0.53843536)" /><g
     id="g19"
     style="fill:#ffffff;fill-opacity:1"
     transform="matrix(0.04195194,0,0,0.04840587,1,-0.53843536)" /><g
     id="g21"
     style="fill:#ffffff;fill-opacity:1"
     transform="matrix(0.04195194,0,0,0.04840587,1,-0.53843536)" /><g
     id="g23"
     style="fill:#ffffff;fill-opacity:1"
     transform="matrix(0.04195194,0,0,0.04840587,1,-0.53843536)" /><g
     id="g25"
     style="fill:#ffffff;fill-opacity:1"
     transform="matrix(0.04195194,0,0,0.04840587,1,-0.53843536)" /><g
     id="g27"
     style="fill:#ffffff;fill-opacity:1"
     transform="matrix(0.04195194,0,0,0.04840587,1,-0.53843536)" /><g
     id="g29"
     style="fill:#ffffff;fill-opacity:1"
     transform="matrix(0.04195194,0,0,0.04840587,1,-0.53843536)" /><g
     id="g31"
     style="fill:#ffffff;fill-opacity:1"
     transform="matrix(0.04195194,0,0,0.04840587,1,-0.53843536)" /><g
     id="g33"
     style="fill:#ffffff;fill-opacity:1"
     transform="matrix(0.04195194,0,0,0.04840587,1,-0.53843536)" /><g
     id="g35"
     style="fill:#ffffff;fill-opacity:1"
     transform="matrix(0.04195194,0,0,0.04840587,1,-0.53843536)" /><g
     id="g37"
     style="fill:#ffffff;fill-opacity:1"
     transform="matrix(0.04195194,0,0,0.04840587,1,-0.53843536)" /><g
     id="g39"
     style="fill:#ffffff;fill-opacity:1"
     transform="matrix(0.04195194,0,0,0.04840587,1,-0.53843536)" /><g
     id="g41"
     style="fill:#ffffff;fill-opacity:1"
     transform="matrix(0.04195194,0,0,0.04840587,1,-0.53843536)" /><g
     id="g43"
     style="fill:#ffffff;fill-opacity:1"
     transform="matrix(0.04195194,0,0,0.04840587,1,-0.53843536)" /></svg>