<?xml version="1.0" encoding="UTF-8" standalone="no"?>
<svg
   xmlns:dc="http://purl.org/dc/elements/1.1/"
   xmlns:cc="http://creativecommons.org/ns#"
   xmlns:rdf="http://www.w3.org/1999/02/22-rdf-syntax-ns#"
   xmlns:svg="http://www.w3.org/2000/svg"
   xmlns="http://www.w3.org/2000/svg"
   xmlns:sodipodi="http://sodipodi.sourceforge.net/DTD/sodipodi-0.dtd"
   xmlns:inkscape="http://www.inkscape.org/namespaces/inkscape"
   height="22"
   width="22"
   id="svg2"
   version="1.1"
   inkscape:version="0.92.3 (2405546, 2018-03-11)"
   sodipodi:docname="gear.svg">
  <metadata
     id="metadata10">
    <rdf:RDF>
      <cc:Work
         rdf:about="">
        <dc:format>image/svg+xml</dc:format>
        <dc:type
           rdf:resource="http://purl.org/dc/dcmitype/StillImage" />
        <dc:title></dc:title>
      </cc:Work>
    </rdf:RDF>
  </metadata>
  <defs
     id="defs8" />
  <sodipodi:namedview
     pagecolor="#ffffff"
     bordercolor="#666666"
     borderopacity="1"
     objecttolerance="10"
     gridtolerance="10"
     guidetolerance="10"
     inkscape:pageopacity="0"
     inkscape:pageshadow="2"
     inkscape:window-width="3200"
     inkscape:window-height="1671"
     id="namedview6"
     showgrid="false"
     inkscape:zoom="41.7193"
     inkscape:cx="11"
     inkscape:cy="11"
     inkscape:window-x="0"
     inkscape:window-y="55"
     inkscape:window-maximized="1"
     inkscape:current-layer="svg2"
     fit-margin-top="1"
     fit-margin-left="1"
     fit-margin-right="1"
     fit-margin-bottom="1"
     inkscape:pagecheckerboard="true" />
  <path
     d="M 21,12.09375 V 9.81696 L 18.23214,8.90179 17.58482,7.33929 18.83482,4.70536 17.22768,3.09821 14.63839,4.39286 13.07589,3.74554 12.09375,1 H 9.81696 L 8.92411,3.76786 7.33929,4.41518 4.70536,3.16518 3.09821,4.77232 4.39286,7.36161 3.74554,8.92411 1,9.90625 v 2.27679 l 2.76786,0.91517 0.64732,1.5625 -1.25,2.63393 1.60714,1.60715 2.58929,-1.29465 1.5625,0.64732 L 9.90625,21 h 2.27679 l 0.89285,-2.76786 1.58482,-0.64732 2.63393,1.25 1.60715,-1.60714 -1.31697,-2.58929 0.66964,-1.5625 z M 11,15.28571 C 8.63393,15.28571 6.71429,13.36607 6.71429,11 6.71429,8.63393 8.63393,6.71429 11,6.71429 c 2.36607,0 4.28571,1.91964 4.28571,4.28571 0,2.36607 -1.91964,4.28571 -4.28571,4.28571 z"
     id="path4"
     style="fill:#ffffff;fill-opacity:1;stroke-width:0.02232143"
     inkscape:connector-curvature="0" />
</svg>
