<?xml version="1.0" encoding="UTF-8" standalone="no"?>
<svg
   xmlns:dc="http://purl.org/dc/elements/1.1/"
   xmlns:cc="http://creativecommons.org/ns#"
   xmlns:rdf="http://www.w3.org/1999/02/22-rdf-syntax-ns#"
   xmlns:svg="http://www.w3.org/2000/svg"
   xmlns="http://www.w3.org/2000/svg"
   xmlns:sodipodi="http://sodipodi.sourceforge.net/DTD/sodipodi-0.dtd"
   xmlns:inkscape="http://www.inkscape.org/namespaces/inkscape"
   height="22"
   width="22"
   id="svg2"
   version="1.1"
   inkscape:version="0.92.3 (2405546, 2018-03-11)"
   sodipodi:docname="git-merge.svg">
  <metadata
     id="metadata10">
    <rdf:RDF>
      <cc:Work
         rdf:about="">
        <dc:format>image/svg+xml</dc:format>
        <dc:type
           rdf:resource="http://purl.org/dc/dcmitype/StillImage" />
        <dc:title></dc:title>
      </cc:Work>
    </rdf:RDF>
  </metadata>
  <defs
     id="defs8" />
  <sodipodi:namedview
     pagecolor="#ffffff"
     bordercolor="#666666"
     borderopacity="1"
     objecttolerance="10"
     gridtolerance="10"
     guidetolerance="10"
     inkscape:pageopacity="0"
     inkscape:pageshadow="2"
     inkscape:window-width="3200"
     inkscape:window-height="1671"
     id="namedview6"
     showgrid="false"
     inkscape:zoom="41.7193"
     inkscape:cx="7.7648601"
     inkscape:cy="11.453888"
     inkscape:window-x="0"
     inkscape:window-y="55"
     inkscape:window-maximized="1"
     inkscape:current-layer="svg2"
     inkscape:pagecheckerboard="true"
     inkscape:showpageshadow="false"
     fit-margin-top="1"
     fit-margin-left="1"
     fit-margin-right="1"
     fit-margin-bottom="1" />
  <path
     d="m 17.66667,9.57143 c -1.22396,0 -2.29167,0.58036 -2.89063,1.45089 V 11 C 13.03125,10.9777 11,10.48661 9.56771,9.54911 8.31771,8.72321 7.06771,7.25 6.41667,6.06696 7.17187,5.55357 7.66667,4.75 7.66667,3.85714 7.66667,2.27232 6.18229,1 4.33333,1 2.48437,1 1,2.27232 1,3.85714 1,4.90625 1.67708,5.82143 2.66667,6.3125 v 9.375 C 1.67708,16.17857 1,17.09375 1,18.14286 1,19.72768 2.48437,21 4.33333,21 6.18229,21 7.66667,19.72768 7.66667,18.14286 7.66667,17.09375 6.98958,16.17857 6,15.6875 v -5.15625 c 1.11979,1.00446 2.39583,1.80804 3.82812,2.41071 1.4323,0.60268 3.38542,0.89286 4.94792,0.91518 v -0.0223 c 0.59896,0.87054 1.66667,1.45089 2.89063,1.45089 C 19.51562,15.28573 21,14.01341 21,12.42859 21,10.84377 19.51562,9.57145 17.66667,9.57145 Z M 6.33854,18.14286 c 0,0.9375 -0.91146,1.71875 -2.00521,1.71875 -1.09375,0 -2.00521,-0.78125 -2.00521,-1.71875 0,-0.9375 0.91146,-1.71875 2.00521,-1.71875 1.09375,0 2.00521,0.78125 2.00521,1.71875 z M 4.33333,5.57589 c -1.09375,0 -2.00521,-0.78125 -2.00521,-1.71875 0,-0.9375 0.91146,-1.71875 2.00521,-1.71875 1.09375,0 2.00521,0.78125 2.00521,1.71875 0,0.9375 -0.91146,1.71875 -2.00521,1.71875 z m 13.33334,8.57143 c -1.09375,0 -2.00521,-0.78125 -2.00521,-1.71875 0,-0.9375 0.91146,-1.71875 2.00521,-1.71875 1.09375,0 2.0052,0.78125 2.0052,1.71875 0,0.9375 -0.91145,1.71875 -2.0052,1.71875 z"
     id="path4"
     style="fill:#ffffff;fill-opacity:1;stroke-width:0.0241099"
     inkscape:connector-curvature="0" />
</svg>
