<?xml version="1.0" encoding="UTF-8" standalone="no"?>
<svg
   xmlns:dc="http://purl.org/dc/elements/1.1/"
   xmlns:cc="http://creativecommons.org/ns#"
   xmlns:rdf="http://www.w3.org/1999/02/22-rdf-syntax-ns#"
   xmlns:svg="http://www.w3.org/2000/svg"
   xmlns="http://www.w3.org/2000/svg"
   xmlns:sodipodi="http://sodipodi.sourceforge.net/DTD/sodipodi-0.dtd"
   xmlns:inkscape="http://www.inkscape.org/namespaces/inkscape"
   height="1024"
   width="768"
   id="svg2"
   version="1.1"
   inkscape:version="0.91 r13725"
   sodipodi:docname="git-merge.svg">
  <metadata
     id="metadata10">
    <rdf:RDF>
      <cc:Work
         rdf:about="">
        <dc:format>image/svg+xml</dc:format>
        <dc:type
           rdf:resource="http://purl.org/dc/dcmitype/StillImage" />
      </cc:Work>
    </rdf:RDF>
  </metadata>
  <defs
     id="defs8" />
  <sodipodi:namedview
     pagecolor="#ffffff"
     bordercolor="#666666"
     borderopacity="1"
     objecttolerance="10"
     gridtolerance="10"
     guidetolerance="10"
     inkscape:pageopacity="0"
     inkscape:pageshadow="2"
     inkscape:window-width="716"
     inkscape:window-height="480"
     id="namedview6"
     showgrid="false"
     inkscape:zoom="0.23046875"
     inkscape:cx="384"
     inkscape:cy="512"
     inkscape:window-x="0"
     inkscape:window-y="27"
     inkscape:window-maximized="0"
     inkscape:current-layer="svg2" />
  <path
     d="M640 448c-47 0-88 26-111 65v-1c-67-1-145-23-200-65-48-37-96-103-121-156 29-23 48-59 48-99 0-71-57-128-128-128S0 121 0 192c0 47 26 88 64 110v420C26 744 0 785 0 832c0 71 57 128 128 128s128-57 128-128c0-47-26-88-64-110V491c43 45 92 81 147 108s130 40 190 41v-1c23 39 64 65 111 65 71 0 128-57 128-128s-57-128-128-128zM205 832c0 42-35 77-77 77s-77-35-77-77 35-77 77-77 77 35 77 77z m-77-563c-42 0-77-35-77-77s35-77 77-77 77 35 77 77-35 77-77 77z m512 384c-42 0-77-35-77-77s35-77 77-77 77 35 77 77-35 77-77 77z"
     id="path4"
     style="fill:#ffffff;fill-opacity:1" />
</svg>
