<svg width="22" height="22" version="1.1" viewBox="0 0 22 22" xmlns="http://www.w3.org/2000/svg">
  <path d="m 18,6.71429 c 0,-1.58483 -1.246875,-2.85715 -2.8,-2.85715 -1.553125,0 -2.8,1.27232 -2.8,2.85715 0,1.0491 0.56875,1.96428 1.4,2.45535 V 9.59375 C 13.77816,10.33036 13.471875,11 12.925,11.55804 12.378125,12.11607 11.721875,12.42857 11,12.45089 9.840625,12.47319 8.921875,12.67411 8.2,13.09821 V 6.3125 C 9.03125,5.82143 9.6,4.90625 9.6,3.85714 9.6,2.27232 8.353125,1 6.8,1 5.246875,1 4,2.27232 4,3.85714 4,4.90625 4.56875,5.82143 5.4,6.3125 v 9.375 C 4.56875,16.17857 4,17.09375 4,18.14286 4,19.72768 5.246875,21 6.8,21 8.353125,21 9.6,19.72768 9.6,18.14286 9.6,17.38393 9.315625,16.71429 8.85625,16.20089 8.9875,16.11159 9.534375,15.62054 9.6875,15.53125 10.0375,15.375 10.475,15.28571 11,15.28571 12.465625,15.21871 13.734375,14.63839 14.85,13.5 15.965625,12.36161 16.534375,10.66518 16.6,9.19196 H 16.57816 C 17.43125,8.67857 18,7.76339 18,6.71429 Z M 6.8,2.13839 c 0.91875,0 1.684375,0.78125 1.684375,1.71875 0,0.9375 -0.765625,1.71875 -1.684375,1.71875 -0.91875,0 -1.684375,-0.78125 -1.684375,-1.71875 0,-0.9375 0.765625,-1.71875 1.684375,-1.71875 z m 0,17.72322 c -0.91875,0 -1.684375,-0.78125 -1.684375,-1.71875 0,-0.9375 0.765625,-1.71875 1.684375,-1.71875 0.91875,0 1.684375,0.78125 1.684375,1.71875 0,0.9375 -0.765625,1.71875 -1.684375,1.71875 z M 15.2,8.43304 c -0.91875,0 -1.684375,-0.78125 -1.684375,-1.71875 0,-0.9375 0.765625,-1.71875 1.684375,-1.71875 0.91875,0 1.684375,0.78125 1.684375,1.71875 0,0.9375 -0.765625,1.71875 -1.684375,1.71875 z"
  fill="#ffffff"/>
</svg>
