<?xml version="1.0" encoding="UTF-8" standalone="no"?>
<svg
   xmlns:dc="http://purl.org/dc/elements/1.1/"
   xmlns:cc="http://creativecommons.org/ns#"
   xmlns:rdf="http://www.w3.org/1999/02/22-rdf-syntax-ns#"
   xmlns:svg="http://www.w3.org/2000/svg"
   xmlns="http://www.w3.org/2000/svg"
   xmlns:sodipodi="http://sodipodi.sourceforge.net/DTD/sodipodi-0.dtd"
   xmlns:inkscape="http://www.inkscape.org/namespaces/inkscape"
   height="22"
   width="22"
   id="svg2"
   version="1.1"
   inkscape:version="0.92.3 (2405546, 2018-03-11)"
   sodipodi:docname="git-compare.svg">
  <metadata
     id="metadata10">
    <rdf:RDF>
      <cc:Work
         rdf:about="">
        <dc:format>image/svg+xml</dc:format>
        <dc:type
           rdf:resource="http://purl.org/dc/dcmitype/StillImage" />
        <dc:title></dc:title>
      </cc:Work>
    </rdf:RDF>
  </metadata>
  <defs
     id="defs8" />
  <sodipodi:namedview
     pagecolor="#ffffff"
     bordercolor="#666666"
     borderopacity="1"
     objecttolerance="10"
     gridtolerance="10"
     guidetolerance="10"
     inkscape:pageopacity="0"
     inkscape:pageshadow="2"
     inkscape:window-width="3200"
     inkscape:window-height="1671"
     id="namedview6"
     showgrid="false"
     inkscape:zoom="20.85965"
     inkscape:cx="11"
     inkscape:cy="11"
     inkscape:window-x="0"
     inkscape:window-y="55"
     inkscape:window-maximized="1"
     inkscape:current-layer="svg2"
     inkscape:pagecheckerboard="true"
     fit-margin-top="1"
     fit-margin-left="1"
     fit-margin-right="1"
     fit-margin-bottom="1"
     inkscape:showpageshadow="false" />
  <path
     d="M 8.14286,16 H 6.71429 C 6.33482,15.9805 6.02232,15.86328 5.73214,15.60937 5.44196,15.35547 5.30804,15.08203 5.28571,14.75 V 6.89844 C 6.13393,6.46875 6.71429,5.66797 6.71429,4.75 6.71429,3.36328 5.44196,2.25 3.85714,2.25 2.27232,2.25 1,3.36328 1,4.75 c 0,0.91797 0.58036,1.71875 1.42857,2.14844 0,2.16797 0,7.85156 0,7.85156 0.0446,0.97656 0.49107,1.83594 1.33929,2.57812 0.84821,0.74219 1.83035,1.13282 2.94643,1.17188 0,0 1.45089,0 1.42857,0 V 21 L 12.42857,17.25 8.14286,13.5 Z M 3.85714,3.24609 c 0.9375,0 1.71875,0.6836 1.71875,1.50391 0,0.82031 -0.78125,1.50391 -1.71875,1.50391 -0.9375,0 -1.71875,-0.6836 -1.71875,-1.50391 0,-0.82031 0.78125,-1.50391 1.71875,-1.50391 z m 15.71429,11.85547 c 0,-2.16797 0,-7.85156 0,-7.85156 C 19.52683,6.27344 19.08036,5.41406 18.23214,4.67187 17.38393,3.92969 16.40179,3.53906 15.28571,3.5 c 0,0 -1.45089,0 -1.42857,0 V 1 L 9.57143,4.75 13.85714,8.5 V 6 h 1.42857 c 0.37947,0.0195 0.69197,0.13672 0.98215,0.39062 0.29018,0.25391 0.4241,0.52735 0.44643,0.85938 v 7.85156 c -0.84822,0.42969 -1.42858,1.23047 -1.42858,2.14844 0,1.38672 1.27233,2.5 2.85715,2.5 C 19.72768,19.75 21,18.63672 21,17.25 21,16.33203 20.41964,15.53125 19.57143,15.10156 Z m -1.42857,3.65235 c -0.9375,0 -1.71875,-0.6836 -1.71875,-1.50391 0,-0.82031 0.78125,-1.50391 1.71875,-1.50391 0.9375,0 1.71875,0.6836 1.71875,1.50391 0,0.82031 -0.78125,1.50391 -1.71875,1.50391 z"
     id="path4"
     style="fill:#ffffff;fill-opacity:1;stroke-width:0.02087978"
     inkscape:connector-curvature="0" />
</svg>
