<?xml version="1.0" encoding="UTF-8" standalone="no"?>
<svg
   xmlns:dc="http://purl.org/dc/elements/1.1/"
   xmlns:cc="http://creativecommons.org/ns#"
   xmlns:rdf="http://www.w3.org/1999/02/22-rdf-syntax-ns#"
   xmlns:svg="http://www.w3.org/2000/svg"
   xmlns="http://www.w3.org/2000/svg"
   xmlns:sodipodi="http://sodipodi.sourceforge.net/DTD/sodipodi-0.dtd"
   xmlns:inkscape="http://www.inkscape.org/namespaces/inkscape"
   height="1024"
   width="640"
   id="svg2"
   version="1.1"
   inkscape:version="0.91 r13725"
   sodipodi:docname="git-branch.svg">
  <metadata
     id="metadata10">
    <rdf:RDF>
      <cc:Work
         rdf:about="">
        <dc:format>image/svg+xml</dc:format>
        <dc:type
           rdf:resource="http://purl.org/dc/dcmitype/StillImage" />
      </cc:Work>
    </rdf:RDF>
  </metadata>
  <defs
     id="defs8" />
  <sodipodi:namedview
     pagecolor="#ffffff"
     bordercolor="#666666"
     borderopacity="1"
     objecttolerance="10"
     gridtolerance="10"
     guidetolerance="10"
     inkscape:pageopacity="0"
     inkscape:pageshadow="2"
     inkscape:window-width="716"
     inkscape:window-height="480"
     id="namedview6"
     showgrid="false"
     inkscape:zoom="0.23046875"
     inkscape:cx="320"
     inkscape:cy="512"
     inkscape:window-x="0"
     inkscape:window-y="27"
     inkscape:window-maximized="0"
     inkscape:current-layer="svg2" />
  <path
     d="M640 320c0-71-57-128-128-128s-128 57-128 128c0 47 26 88 64 110v19c-1 33-15 63-40 88s-55 39-88 40c-53 1-95 10-128 29V302c38-22 64-63 64-110 0-71-57-128-128-128S0 121 0 192c0 47 26 88 64 110v420C26 744 0 785 0 832c0 71 57 128 128 128s128-57 128-128c0-34-13-64-34-87 6-4 31-26 38-30 16-7 36-11 60-11 67-3 125-29 176-80s77-127 80-193h-1c39-23 65-64 65-111zM128 115c42 0 77 35 77 77s-35 77-77 77-77-35-77-77 35-77 77-77z m0 794c-42 0-77-35-77-77s35-77 77-77 77 35 77 77-35 77-77 77z m384-512c-42 0-77-35-77-77s35-77 77-77 77 35 77 77-35 77-77 77z"
     id="path4"
     style="fill:#ffffff;fill-opacity:1" />
</svg>
