<?xml version="1.0" encoding="UTF-8" standalone="no"?>
<svg
   xmlns:dc="http://purl.org/dc/elements/1.1/"
   xmlns:cc="http://creativecommons.org/ns#"
   xmlns:rdf="http://www.w3.org/1999/02/22-rdf-syntax-ns#"
   xmlns:svg="http://www.w3.org/2000/svg"
   xmlns="http://www.w3.org/2000/svg"
   xmlns:sodipodi="http://sodipodi.sourceforge.net/DTD/sodipodi-0.dtd"
   xmlns:inkscape="http://www.inkscape.org/namespaces/inkscape"
   height="22"
   width="22"
   id="svg2"
   version="1.1"
   inkscape:version="0.92.3 (2405546, 2018-03-11)"
   sodipodi:docname="question.svg">
  <metadata
     id="metadata10">
    <rdf:RDF>
      <cc:Work
         rdf:about="">
        <dc:format>image/svg+xml</dc:format>
        <dc:type
           rdf:resource="http://purl.org/dc/dcmitype/StillImage" />
        <dc:title></dc:title>
      </cc:Work>
    </rdf:RDF>
  </metadata>
  <defs
     id="defs8" />
  <sodipodi:namedview
     pagecolor="#ffffff"
     bordercolor="#666666"
     borderopacity="1"
     objecttolerance="10"
     gridtolerance="10"
     guidetolerance="10"
     inkscape:pageopacity="0"
     inkscape:pageshadow="2"
     inkscape:window-width="3200"
     inkscape:window-height="1671"
     id="namedview6"
     showgrid="false"
     inkscape:zoom="29.5"
     inkscape:cx="6.558902"
     inkscape:cy="6.3834992"
     inkscape:window-x="0"
     inkscape:window-y="55"
     inkscape:window-maximized="1"
     inkscape:current-layer="svg2"
     inkscape:pagecheckerboard="true"
     fit-margin-top="1"
     fit-margin-left="1"
     fit-margin-right="1"
     fit-margin-bottom="1"
     inkscape:showpageshadow="false" />
  <path
     d="m 9.57143,13.85714 h 2.85714 v 2.85715 H 9.57143 Z m 5.71428,-5 c 0,3.05804 -2.85714,3.57143 -2.85714,3.57143 H 9.57143 C 9.57143,11.64732 10.21875,11 11,11 h 0.71429 c 0.40178,0 0.71428,-0.3125 0.71428,-0.71429 V 8.85714 c 0,-0.40178 -0.3125,-0.71428 -0.71428,-0.71428 h -1.42858 c -0.40178,0 -0.71428,0.3125 -0.71428,0.71428 V 9.57143 H 6.71429 c 0,-2.14286 2.14285,-4.28572 4.28571,-4.28572 2.14286,0 4.28571,1.42858 4.28571,3.57143 z M 11,2.85268 c 4.48661,0 8.14732,3.66071 8.14732,8.14732 0,4.48661 -3.66071,8.14732 -8.14732,8.14732 C 6.51339,19.14732 2.85268,15.48661 2.85268,11 2.85268,6.51339 6.51339,2.85268 11,2.85268 M 11,1 C 5.48661,1 1,5.48661 1,11 1,16.51339 5.48661,21 11,21 16.51339,21 21,16.51339 21,11 21,5.48661 16.51339,1 11,1 Z"
     id="path4"
     style="fill:#ffffff;fill-opacity:1;stroke-width:0.02232143"
     inkscape:connector-curvature="0" />
</svg>
