<svg width="22" height="22" version="1.1" viewBox="0 0 22 22" xmlns="http://www.w3.org/2000/svg">
<path d="M 17.25,11 V 8.5 H 9.75 V 6 h 7.5 V 3.5 L 21,7.25 Z M 6,3.5 H 4.75 V 4.75 H 6 Z m 8.75,6.25 H 16 v 7.5 c 0,0.68359 -0.56641,1.25 -1.25,1.25 H 8.5 V 21 L 6.625,19.125 4.75,21 V 18.5 H 2.25 C 1.56641,18.5 1,17.93359 1,17.25 v -15 C 1,1.56641 1.56641,1 2.25,1 h 12.5 C 15.43359,1 16,1.56641 16,2.25 v 2.5 H 14.75 V 2.25 H 3.5 V 13.5 h 11.25 z m 0,5 H 2.25 v 2.5 h 2.5 V 16 H 8.5 v 1.25 h 6.25 z M 6,8.5 H 4.75 V 9.75 H 6 Z M 6,6 H 4.75 V 7.25 H 6 Z M 4.75,12.25 H 6 V 11 H 4.75 Z"
  fill="#ffffff"/>
</svg>
