<?xml version="1.0" encoding="UTF-8" standalone="no"?>
<svg
   xmlns:dc="http://purl.org/dc/elements/1.1/"
   xmlns:cc="http://creativecommons.org/ns#"
   xmlns:rdf="http://www.w3.org/1999/02/22-rdf-syntax-ns#"
   xmlns:svg="http://www.w3.org/2000/svg"
   xmlns="http://www.w3.org/2000/svg"
   xmlns:sodipodi="http://sodipodi.sourceforge.net/DTD/sodipodi-0.dtd"
   xmlns:inkscape="http://www.inkscape.org/namespaces/inkscape"
   height="22"
   width="22"
   id="svg2"
   version="1.1"
   inkscape:version="0.92.3 (2405546, 2018-03-11)"
   sodipodi:docname="repo-push.svg">
  <metadata
     id="metadata10">
    <rdf:RDF>
      <cc:Work
         rdf:about="">
        <dc:format>image/svg+xml</dc:format>
        <dc:type
           rdf:resource="http://purl.org/dc/dcmitype/StillImage" />
        <dc:title></dc:title>
      </cc:Work>
    </rdf:RDF>
  </metadata>
  <defs
     id="defs8" />
  <sodipodi:namedview
     pagecolor="#ffffff"
     bordercolor="#666666"
     borderopacity="1"
     objecttolerance="10"
     gridtolerance="10"
     guidetolerance="10"
     inkscape:pageopacity="0"
     inkscape:pageshadow="2"
     inkscape:window-width="3200"
     inkscape:window-height="1671"
     id="namedview6"
     showgrid="false"
     inkscape:zoom="29.5"
     inkscape:cx="4.7184614"
     inkscape:cy="2.514565"
     inkscape:window-x="0"
     inkscape:window-y="55"
     inkscape:window-maximized="1"
     inkscape:current-layer="svg2"
     fit-margin-top="1"
     fit-margin-left="1"
     fit-margin-right="1"
     fit-margin-bottom="1"
     inkscape:pagecheckerboard="true" />
  <path
     d="M 7.66667,4.75 H 6 V 3.5 H 7.66667 Z M 6,7.25 H 7.66667 V 6 H 6 Z m 6.66667,0 -5,5 H 11 V 21 h 3.33333 v -8.75 h 3.33334 z M 19.33333,1 H 2.66667 C 1.75521,1 1,1.56641 1,2.25 v 15 c 0,0.68359 0.75521,1.25 1.66667,1.25 H 9.33333 V 17.25 H 2.66667 v -2.5 H 9.33333 V 13.5 h -5 V 2.25 h 15.02604 l -0.026,11.25 H 16 v 1.25 h 3.33333 v 2.5 H 16 v 1.25 h 3.33333 C 20.24479,18.5 21,17.93359 21,17.25 v -15 C 21,1.56641 20.24479,1 19.33333,1 Z"
     id="path4"
     style="fill:#ffffff;fill-opacity:1;stroke-width:0.02255275"
     inkscape:connector-curvature="0" />
</svg>
