<?xml version="1.0" encoding="UTF-8" standalone="no"?>
<svg
   xmlns:dc="http://purl.org/dc/elements/1.1/"
   xmlns:cc="http://creativecommons.org/ns#"
   xmlns:rdf="http://www.w3.org/1999/02/22-rdf-syntax-ns#"
   xmlns:svg="http://www.w3.org/2000/svg"
   xmlns="http://www.w3.org/2000/svg"
   xmlns:sodipodi="http://sodipodi.sourceforge.net/DTD/sodipodi-0.dtd"
   xmlns:inkscape="http://www.inkscape.org/namespaces/inkscape"
   height="22"
   width="22"
   id="svg2"
   version="1.1"
   inkscape:version="0.92.3 (2405546, 2018-03-11)"
   sodipodi:docname="repo-pull.svg">
  <metadata
     id="metadata10">
    <rdf:RDF>
      <cc:Work
         rdf:about="">
        <dc:format>image/svg+xml</dc:format>
        <dc:type
           rdf:resource="http://purl.org/dc/dcmitype/StillImage" />
        <dc:title></dc:title>
      </cc:Work>
    </rdf:RDF>
  </metadata>
  <defs
     id="defs8" />
  <sodipodi:namedview
     pagecolor="#ffffff"
     bordercolor="#666666"
     borderopacity="1"
     objecttolerance="10"
     gridtolerance="10"
     guidetolerance="10"
     inkscape:pageopacity="0"
     inkscape:pageshadow="2"
     inkscape:window-width="3200"
     inkscape:window-height="1671"
     id="namedview6"
     showgrid="false"
     inkscape:zoom="29.5"
     inkscape:cx="21.689727"
     inkscape:cy="14.98956"
     inkscape:window-x="0"
     inkscape:window-y="55"
     inkscape:window-maximized="1"
     inkscape:current-layer="svg2"
     inkscape:pagecheckerboard="true"
     inkscape:showpageshadow="false"
     fit-margin-top="1"
     fit-margin-left="1"
     fit-margin-right="1"
     fit-margin-bottom="1" />
  <path
     d="M 17.25,11 V 8.5 H 9.75 V 6 h 7.5 V 3.5 L 21,7.25 Z M 6,3.5 H 4.75 V 4.75 H 6 Z m 8.75,6.25 H 16 v 7.5 c 0,0.68359 -0.56641,1.25 -1.25,1.25 H 8.5 V 21 L 6.625,19.125 4.75,21 V 18.5 H 2.25 C 1.56641,18.5 1,17.93359 1,17.25 v -15 C 1,1.56641 1.56641,1 2.25,1 h 12.5 C 15.43359,1 16,1.56641 16,2.25 v 2.5 H 14.75 V 2.25 H 3.5 V 13.5 h 11.25 z m 0,5 H 2.25 v 2.5 h 2.5 V 16 H 8.5 v 1.25 h 6.25 z M 6,8.5 H 4.75 V 9.75 H 6 Z M 6,6 H 4.75 V 7.25 H 6 Z M 4.75,12.25 H 6 V 11 H 4.75 Z"
     id="path4"
     style="fill:#ffffff;fill-opacity:1;stroke-width:0.01953125"
     inkscape:connector-curvature="0" />
</svg>
