<svg width="22" height="22" version="1.1" viewBox="0 0 22 22" xmlns="http://www.w3.org/2000/svg">
<path d="M 19.57143,14.33333 H 21 v 5 C 21,20.24479 20.35268,21 19.57143,21 h -4.28572 v -1.66667 h 4.28572 z m -17.14286,0 H 1 v 5 C 1,20.24479 1.64732,21 2.42857,21 H 6.71429 V 19.33333 H 2.42857 Z m 0,-11.66666 H 6.71429 V 1 H 2.42857 C 1.64732,1 1,1.75521 1,2.66667 v 5 H 2.42857 Z M 3.85714,4.33333 H 18.14286 V 17.66667 H 3.85714 Z m 2.85715,10 h 8.57142 V 7.66667 H 6.71429 Z M 19.57143,1 h -4.28572 v 1.66667 h 4.28572 v 5 H 21 v -5 C 21,1.75521 20.35268,1 19.57143,1 Z"
  fill="#ffffff"/>
</svg>
