<?xml version="1.0" encoding="UTF-8" standalone="no"?>
<svg
   xmlns:dc="http://purl.org/dc/elements/1.1/"
   xmlns:cc="http://creativecommons.org/ns#"
   xmlns:rdf="http://www.w3.org/1999/02/22-rdf-syntax-ns#"
   xmlns:svg="http://www.w3.org/2000/svg"
   xmlns="http://www.w3.org/2000/svg"
   xmlns:sodipodi="http://sodipodi.sourceforge.net/DTD/sodipodi-0.dtd"
   xmlns:inkscape="http://www.inkscape.org/namespaces/inkscape"
   height="22"
   width="22"
   id="svg2"
   version="1.1"
   inkscape:version="0.92.3 (2405546, 2018-03-11)"
   sodipodi:docname="tag.svg">
  <metadata
     id="metadata10">
    <rdf:RDF>
      <cc:Work
         rdf:about="">
        <dc:format>image/svg+xml</dc:format>
        <dc:type
           rdf:resource="http://purl.org/dc/dcmitype/StillImage" />
        <dc:title></dc:title>
      </cc:Work>
    </rdf:RDF>
  </metadata>
  <defs
     id="defs8" />
  <sodipodi:namedview
     pagecolor="#ffffff"
     bordercolor="#666666"
     borderopacity="1"
     objecttolerance="10"
     gridtolerance="10"
     guidetolerance="10"
     inkscape:pageopacity="0"
     inkscape:pageshadow="2"
     inkscape:window-width="3200"
     inkscape:window-height="1671"
     id="namedview6"
     showgrid="false"
     inkscape:zoom="20.85965"
     inkscape:cx="13.348863"
     inkscape:cy="15.681712"
     inkscape:window-x="0"
     inkscape:window-y="55"
     inkscape:window-maximized="1"
     inkscape:current-layer="svg2"
     fit-margin-top="1"
     fit-margin-left="1"
     fit-margin-right="1"
     fit-margin-bottom="1"
     inkscape:pagecheckerboard="true" />
  <path
     d="M 11.28947,2.12205 C 10.57326,1.40585 9.59445,1 8.59176,1 h -3.772 C 2.71889,1 1,2.71889 1,4.81976 v 3.772 c 0,1.00269 0.40585,1.9815 1.12205,2.69771 l 9.26291,9.2629 c 0.59684,0.59684 1.55178,0.59684 2.14861,0 l 7.0188,-7.0188 c 0.59684,-0.59683 0.59684,-1.55177 0,-2.14861 z m -8.1886,8.1886 C 2.6234,9.85706 2.38466,9.23635 2.38466,8.59176 v -3.772 c 0,-1.33692 1.09818,-2.4351 2.4351,-2.4351 h 3.772 c 0.64459,0 1.2653,0.23874 1.71889,0.71621 l 9.38228,9.3584 -7.23366,7.23366 z M 4.0558,4.0558 H 7.11161 V 7.11161 H 4.0558 Z"
     id="path4"
     style="fill:#ffffff;fill-opacity:1;stroke-width:0.02387347"
     inkscape:connector-curvature="0" />
</svg>
