<svg width="22" height="22" version="1.1" viewBox="0 0 22 22" xmlns="http://www.w3.org/2000/svg">
<path d="M 19.18182,2.42857 H 15.54545 C 15.54545,1.64732 14.72159,1 13.72727,1 H 8.27273 C 7.27841,1 6.45455,1.64732 6.45455,2.42857 H 2.81818 C 1.82386,2.42857 1,3.07589 1,3.85714 V 5.28571 C 1,6.06696 1.82386,6.71429 2.81818,6.71429 V 19.57143 C 2.81818,20.35268 3.64205,21 4.63636,21 h 12.72728 c 0.99431,0 1.81818,-0.64732 1.81818,-1.42857 V 6.71429 C 20.17614,6.71429 21,6.06696 21,5.28571 V 3.85714 C 21,3.07589 20.17614,2.42857 19.18182,2.42857 Z M 17.36364,19.57143 H 4.63636 V 6.71429 H 6.45455 V 18.14286 H 8.27273 V 6.71429 h 1.81818 v 11.42857 h 1.81818 V 6.71429 h 1.81818 v 11.42857 h 1.81818 V 6.71429 h 1.81819 z M 19.18182,5.28571 H 2.81818 V 3.85714 h 16.36364 z"
  fill="#ffffff"/>
</svg>
