<svg width="22" height="22" version="1.1" viewBox="0 0 22 22" xmlns="http://www.w3.org/2000/svg">
<path d="M 16.00004,0.99995 16.01954,17 H 13 c 0.98047,1.00001 2.98046,3.00001 3.98048,4 1,-0.99999 2.99998,-2.99999 4.01952,-4 H 17.98048 L 17.96088,0.99995 Z"
  fill="#000000"/>
<path d="m 11.78054,12.93053 c -0.5852,0.4265 -1.24356,0.93539 -1.97506,1.52666 -0.71321,0.58158 -1.44471,1.19224 -2.19451,1.83199 -0.7498,0.63973 -1.4813,1.28432 -2.19452,1.93376 -0.69493,0.63974 -1.30755,1.22618 -1.8379,1.75928 H 12 V 21 H 1 V 20.21486 C 1.56691,19.6042 2.1887,18.979 2.86533,18.33925 3.56027,17.68982 4.26434,17.05493 4.97755,16.43457 5.69077,15.81421 6.40399,15.21324 7.1172,14.63166 7.83042,14.05007 8.51621,13.51212 9.17456,13.01777 H 1.41147 V 12 h 10.36907 z"
  fill="#000000"/>
<path d="M 10.01452,10 9.1701204,7.6445905 h -5.43153 L 2.9170101,10 H 1 q 0.38797,-0.9596095 0.8672201,-2.0791595 0.47925,-1.11955 1.02697,-2.2972503 0.57054,-1.17771 1.1867203,-2.35542 0.61619,-1.19224 1.30083,-2.26817 h 2.3278 q 0.66183,1.07593 1.25519,2.26817 0.61618,1.17771 1.1410796,2.35542 0.54772,1.1777003 1.02697,2.2972503 Q 11.61203,9.0403905 12,10 Z M 6.4771804,2.0468502 q -0.5249,0.916 -1.14108,2.12278 -0.61618,1.20678 -1.1639,2.4862603 h 4.56431 q -0.52489,-1.3085603 -1.14107,-2.5153403 -0.59336,-1.22133 -1.11826,-2.0937 z"
  fill="#000000"/>
</svg>
