<svg width="22" height="22" version="1.1" viewBox="0 0 22 22" xmlns="http://www.w3.org/2000/svg">
<path d="m 15.16667,1 h -12.5 C 1.75521,1 1,1.64732 1,2.42857 V 19.57143 C 1,20.35268 1.75521,21 2.66667,21 H 19.33333 C 20.24479,21 21,20.35268 21,19.57143 V 6 Z m 4.16666,18.57143 H 2.66667 V 2.42857 h 5 V 3.85714 H 9.33333 V 2.42857 h 5 l 5,4.28572 z m -10,-14.28572 V 3.85714 H 11 v 1.42857 z m -1.66666,0 H 9.33333 V 6.71429 H 7.66667 Z M 9.33333,8.14286 V 6.71429 H 11 v 1.42857 z m -1.66666,0 H 9.33333 V 9.57143 H 7.66667 Z M 9.33333,11 V 9.57143 H 11 V 11 Z M 7.66667,12.83036 C 6.67708,13.32143 6,14.23661 6,15.28571 v 1.42858 h 6.66667 v -1.42858 c 0,-1.58482 -1.48438,-2.85714 -3.33334,-2.85714 V 11 H 7.66667 Z M 11,13.85714 v 1.42857 H 7.66667 v -1.42857 z"
  fill="#000000"/>
</svg>
