<svg width="22" height="22" version="1.1" viewBox="0 0 22 22" xmlns="http://www.w3.org/2000/svg">
<path d="M 9.8164063,1 8.9238281,3.7675781 7.3398437,4.4160156 4.7050781,3.1660156 3.0976563,4.7714844 4.3925781,7.3613281 3.7460938,8.9238281 1,9.90625 v 2.277344 l 2.7675781,0.914062 0.6484375,1.5625 -1.25,2.634766 1.6054688,1.607422 2.5898437,-1.294922 1.5625,0.646484 L 9.90625,21 h 2.277344 l 0.892578,-2.767578 1.583984,-0.648438 2.634766,1.25 1.607422,-1.605468 -1.31836,-2.589844 0.669922,-1.5625 L 21,12.09375 V 9.8164063 L 18.232422,8.9023438 17.583984,7.3398437 18.833984,4.7050781 17.228516,3.0976563 14.638672,4.3925781 13.076172,3.7460938 12.09375,1 Z" />
</svg>
