<svg width="22" height="22" version="1.1" viewBox="0 0 22 22" xmlns="http://www.w3.org/2000/svg">
<path d="m 18.067571,9.99659 c 0.30919,2.1281 -0.34011,4.3693 -2.00001,6.00505 -2.45245,2.42026 -6.2360399,2.7181 -9.0188299,0.90005 l 1.94958,-1.90104 -7.1653,-0.99935 1.00003,6.9987 2.18798,-2.09635 c 3.92928,2.89713 9.5021599,2.62369 13.0725799,-0.90006 2.07,-2.04265 3.01387,-4.75422 2.8967,-7.43 z M 5.9339511,6.00161 C 8.3855611,3.58135 12.168381,3.28187 14.951161,5.10156 L 12.998331,7.0018 20.163601,8.00195 19.164411,1 16.978851,3.10125 C 13.048791,0.20167 7.4775211,0.47836 3.9062711,4.0013 c -2.07,2.04182 -3.01304001,4.75341 -2.8967,7.42839 l 2.92273,0.57617 c -0.30919,-2.12891 0.34175,-4.36768 2.00165,-6.00425 z"
  fill="#000000"/>
</svg>
