<svg width="22" height="22" version="1.1" viewBox="0 0 22 22" xmlns="http://www.w3.org/2000/svg">
<path d="m 13.255457,12.25 4.84089,7.5 h -1.61363 l -3.22726,-5 V 21 h -1.61363 v -7.5 l -3.2272604,6.25 h -1.61363 L 10.028197,13.5 Z M 11.641827,1 h -1.61363 v 1.25 h 1.61363 z M 8.4145666,4.75 h -1.61363 V 6 h 1.61363 z m -4.84089,-2.5 h -1.61363 V 3.5 h 1.61363 z m -2.21874,10 c -0.35299,0.19531 -0.45384001,0.54687 -0.25213,0.83984 l 0.88245,1.15235 c 0.2017,0.29297 0.65554,0.39062 1.03373,0.2539 l 2.24396,-0.82031 -1.86576,-2.5 z m 12.7325504,-6.73828 -9.3540204,4.9414 1.99183,2.67579 10.2112504,-3.78907 z m 6.8075,1.60156 -2.37002,-3.14453 c -0.22692,-0.3125 -0.75639,-0.41016 -1.1598,-0.21484 l -1.94139,1.03515 2.97513,4.00391 2.1431,-0.80078 c 0.42862,-0.15625 0.5799,-0.54688 0.35298,-0.87891 z"
  fill="#000000"/>
</svg>
