<svg width="22" height="22" version="1.1" viewBox="0 0 22 22" xmlns="http://www.w3.org/2000/svg">
<path fill-rule="evenodd" clip-rule="evenodd" d="M1.7,4c0-0.3,0.1-0.5,0.3-0.7S2.4,3,2.7,3h16.7c0.3,0,0.5,0.1,0.7,0.3c0.2,0.2,0.3,0.4,0.3,0.7S20.2,4.5,20,4.7
  C19.8,4.9,19.6,5,19.3,5H2.7C2.4,5,2.1,4.9,2,4.7S1.7,4.3,1.7,4z M1.7,11c0-0.3,0.1-0.5,0.3-0.7S2.4,10,2.7,10h16.7
  c0.3,0,0.5,0.1,0.7,0.3c0.2,0.2,0.3,0.4,0.3,0.7s-0.1,0.5-0.3,0.7c-0.2,0.2-0.4,0.3-0.7,0.3H2.7c-0.3,0-0.5-0.1-0.7-0.3
  C1.8,11.5,1.7,11.3,1.7,11z M2.7,17c-0.3,0-0.5,0.1-0.7,0.3c-0.2,0.2-0.3,0.4-0.3,0.7s0.1,0.5,0.3,0.7C2.1,18.9,2.4,19,2.7,19h16.7
  c0.3,0,0.5-0.1,0.7-0.3c0.2-0.2,0.3-0.4,0.3-0.7s-0.1-0.5-0.3-0.7c-0.2-0.2-0.4-0.3-0.7-0.3H2.7z"
  />
</svg>
