<svg width="22" height="22" version="1.1" viewBox="0 0 22 22" xmlns="http://www.w3.org/2000/svg">
<path d="M 17.42857,11 21,14.33333 c 0,0.72917 -0.64732,1.33334 -1.42857,1.33334 h -5.71429 v -1.33334 h 5 L 16,11.66667 H 6 l -2.85714,2.66666 h 5 v 1.33334 H 2.42857 C 1.64732,15.66667 1,15.0625 1,14.33333 L 4.57143,11 1,7.66667 C 1,6.9375 1.64732,6.33333 2.42857,6.33333 h 5.71429 v 1.33334 h -5 L 6,10.33333 h 10 l 2.85714,-2.66666 h -5 V 6.33333 h 5.71429 C 20.35268,6.33333 21,6.9375 21,7.66667 Z M 9.57143,9 h 2.85714 V 5 h 2.85714 L 11,1 6.71429,5 h 2.85714 z m 2.85714,4 H 9.57143 v 4 H 6.71429 L 11,21 15.28571,17 h -2.85714 z"
  fill="#000000"/>
</svg>
