<svg width="22" height="22" version="1.1" viewBox="0 0 22 22" xmlns="http://www.w3.org/2000/svg">
  <path
     d="m 13.746,13.715257 0.999686,3.241145 3.498902,3.739782 c 0.241161,0.257764 1.365688,0.632157 2.249295,-0.249319 0.749764,-0.747956 0.516503,-1.995658 0.249921,-2.243869 L 16.99498,14.712533 Z M 8.9974894,1 A 7.9974907,7.9782011 0 0 0 1,8.9782024 7.9974907,7.9782011 0 0 0 8.9974894,16.956402 7.9974907,7.9782011 0 0 0 16.99498,8.9782024 7.9974907,7.9782011 0 0 0 8.9974894,1 Z m 0,1.9945506 A 5.998118,5.9836509 0 0 1 14.995607,8.9782024 5.998118,5.9836509 0 0 1 8.9974894,14.961853 5.998118,5.9836509 0 0 1 2.9993718,8.9782024 5.998118,5.9836509 0 0 1 8.9974894,2.9945506 Z"
    fill="#000000"/>
  <path
     style="fill:none;stroke:#000000;stroke-width:1.5;stroke-linecap:round"
     d="M 5.4985873,5.4877379 H 12.496392 V 12.468664 H 5.4985873 Z"/>
</svg>
