<svg width="22" height="22" version="1.1" viewBox="0 0 22 22" xmlns="http://www.w3.org/2000/svg"><path d="m0 22v-22h22v22z" fill="none" style="stroke-width:.91667"/><circle transform="rotate(-90)" cx="-16.5" cy="16.5" r="1.8333" fill="none" style="stroke-width:.91667"/><circle transform="rotate(-90)" cx="-11" cy="11" r=".45833" fill="none" style="stroke-width:.91667"/><circle transform="rotate(-90)" cx="-16.5" cy="5.5" r="1.8333" fill="none" style="stroke-width:.91667"/><path d="m7.0033 13.163c-.45833-.21083-.9625-.33-1.5033-.33-2.0258 0-3.6667 1.6408-3.6667 3.6667s1.6408 3.6667 3.6667 3.6667 3.6667-1.6408 3.6667-3.6667c0-.54083-.11917-1.045-.33-1.5033l2.1633-2.1633 2.1633 2.1633c-.21083.45833-.33.9625-.33 1.5033 0 2.0258 1.6408 3.6667 3.6667 3.6667s3.6667-1.6408 3.6667-3.6667-1.6408-3.6667-3.6667-3.6667c-.54083 0-1.045.11917-1.5033.33l-2.1633-2.1633 6.4167-6.4167v-2.75h-.91667zm.33 3.3367c0 1.0083-.81583 1.8333-1.8333 1.8333s-1.8333-.825-1.8333-1.8333.81583-1.8333 1.8333-1.8333 1.8333.825 1.8333 1.8333zm11 0c0 1.0083-.81583 1.8333-1.8333 1.8333s-1.8333-.825-1.8333-1.8333.81583-1.8333 1.8333-1.8333 1.8333.825 1.8333 1.8333zm-6.875-5.5c0 .25667-.20167.45833-.45833.45833s-.45833-.20167-.45833-.45833.20167-.45833.45833-.45833.45833.20167.45833.45833zm-8.7083-6.4167 5.5 5.5 1.8333-1.8333-6.4167-6.4167h-.91667z" style="stroke-width:.91667;fill:#ffffff"/></svg>
