<svg width="22" height="22" version="1.1" viewBox="0 0 22 22" xmlns="http://www.w3.org/2000/svg">
<path d="m 19.750017,0.999998 h -5.64502 c -0.691262,0 -1.485018,0.4323129 -1.854995,1.5384355 0,0 -0.162511,1.4107892 -1.249982,1.5384355 H 2.2499828 C 1.5600184,4.0769174 1,4.74153 1,5.5907627 V 19.461514 c 0,0.849233 0.5600184,1.538484 1.2499828,1.538484 H 19.750017 C 20.440021,20.999998 21,20.310747 21,19.461514 V 2.5384335 C 21.000039,1.6892008 20.440021,0.999998 19.750017,0.999998 Z m 0,4.5907647 V 19.461514 H 2.2499828 V 5.6153528 H 11.00002 l 0.119995,-0.0077 C 12.292518,5.4707126 13.017525,4.4614985 13.351279,3.4230473 13.676262,2.4184318 14.242534,2.53843 14.242534,2.53843 h 5.507523 v 3.0523292 z"
  fill="#ffffff"/>
</svg>
