<?xml version="1.0" encoding="UTF-8" standalone="no"?>
<svg
   viewBox="0 0 22 22"
   width="22"
   height="22"
   version="1.1"
   xmlns="http://www.w3.org/2000/svg"
   xmlns:svg="http://www.w3.org/2000/svg">
  <path d="M9.5 15.584V8.416a.5.5 0 0 1 .77-.42l5.576 3.583a.5.5 0 0 1 0 .842l-5.576 3.584a.5.5 0 0 1-.77-.42Z" fill="#ffffff" />
  <path d="M 0,11 C 0,4.925 4.925,0 11,0 17.075,0 22,4.925 22,11 22,17.075 17.075,22 11,22 4.925,22 0,17.075 0,11 Z M 11,1.5 A 9.5,9.5 0 0 0 1.5,11 9.5,9.5 0 0 0 11,20.5 9.5,9.5 0 0 0 20.5,11 9.5,9.5 0 0 0 11,1.5 Z" fill="#ffffff" />
</svg>
