<svg width="22" height="22" version="1.1" viewBox="0 0 22 22" xmlns="http://www.w3.org/2000/svg">
<path d="m 9.57143,13.85714 h 2.85714 v 2.85715 H 9.57143 Z m 5.71428,-5 c 0,3.05804 -2.85714,3.57143 -2.85714,3.57143 H 9.57143 C 9.57143,11.64732 10.21875,11 11,11 h 0.71429 c 0.40178,0 0.71428,-0.3125 0.71428,-0.71429 V 8.85714 c 0,-0.40178 -0.3125,-0.71428 -0.71428,-0.71428 h -1.42858 c -0.40178,0 -0.71428,0.3125 -0.71428,0.71428 V 9.57143 H 6.71429 c 0,-2.14286 2.14285,-4.28572 4.28571,-4.28572 2.14286,0 4.28571,1.42858 4.28571,3.57143 z M 11,2.85268 c 4.48661,0 8.14732,3.66071 8.14732,8.14732 0,4.48661 -3.66071,8.14732 -8.14732,8.14732 C 6.51339,19.14732 2.85268,15.48661 2.85268,11 2.85268,6.51339 6.51339,2.85268 11,2.85268 M 11,1 C 5.48661,1 1,5.48661 1,11 1,16.51339 5.48661,21 11,21 16.51339,21 21,16.51339 21,11 21,5.48661 16.51339,1 11,1 Z"
  fill="#ffffff"/>
</svg>
