<svg width="22" height="22" version="1.1" viewBox="0 0 22 22" xmlns="http://www.w3.org/2000/svg">
<path d="M 7.66667,4.75 H 6 V 3.5 H 7.66667 Z M 6,7.25 H 7.66667 V 6 H 6 Z m 6.66667,0 -5,5 H 11 V 21 h 3.33333 v -8.75 h 3.33334 z M 19.33333,1 H 2.66667 C 1.75521,1 1,1.56641 1,2.25 v 15 c 0,0.68359 0.75521,1.25 1.66667,1.25 H 9.33333 V 17.25 H 2.66667 v -2.5 H 9.33333 V 13.5 h -5 V 2.25 h 15.02604 l -0.026,11.25 H 16 v 1.25 h 3.33333 v 2.5 H 16 v 1.25 h 3.33333 C 20.24479,18.5 21,17.93359 21,17.25 v -15 C 21,1.56641 20.24479,1 19.33333,1 Z"
  fill="#ffffff"/>
</svg>
