<svg width="22" height="22" version="1.1" viewBox="0 0 22 22" xmlns="http://www.w3.org/2000/svg">
<path d="M 20.60927,18.72917 15.52462,13.625 C 16.46236,12.3125 17.00417,10.72917 17.00417,9 17.00417,4.58333 13.4199,1 9.00208,1 4.58427,1 1,4.58333 1,9 c 0,4.41667 3.58427,8 8.00208,8 1.72962,0 3.31337,-0.54167 4.62621,-1.47917 l 5.10549,5.08334 C 18.98385,20.875 19.33811,21 19.67153,21 c 0.33342,0 0.68768,-0.125 0.93774,-0.39583 0.52097,-0.52084 0.52097,-1.35417 0,-1.875 z M 9.00208,15.27083 c -3.45923,0 -6.27246,-2.8125 -6.27246,-6.27083 0,-3.45833 2.81323,-6.27083 6.27246,-6.27083 3.45924,0 6.27247,2.8125 6.27247,6.27083 0,3.45833 -2.81323,6.27083 -6.27247,6.27083 z"
  fill="#ffffff"/>
</svg>
