<svg width="22" height="22" version="1.1" viewBox="0 0 22 22" xmlns="http://www.w3.org/2000/svg">
<path d="M 11.28947,2.12205 C 10.57326,1.40585 9.59445,1 8.59176,1 h -3.772 C 2.71889,1 1,2.71889 1,4.81976 v 3.772 c 0,1.00269 0.40585,1.9815 1.12205,2.69771 l 9.26291,9.2629 c 0.59684,0.59684 1.55178,0.59684 2.14861,0 l 7.0188,-7.0188 c 0.59684,-0.59683 0.59684,-1.55177 0,-2.14861 z m -8.1886,8.1886 C 2.6234,9.85706 2.38466,9.23635 2.38466,8.59176 v -3.772 c 0,-1.33692 1.09818,-2.4351 2.4351,-2.4351 h 3.772 c 0.64459,0 1.2653,0.23874 1.71889,0.71621 l 9.38228,9.3584 -7.23366,7.23366 z M 4.0558,4.0558 H 7.11161 V 7.11161 H 4.0558 Z"
  fill="#f9c113"/>
</svg>
