<?xml version="1.0" encoding="UTF-8" standalone="no"?>
<svg viewBox="0 0 22 22" width="22" height="22" xmlns="http://www.w3.org/2000/svg" xmlns:svg="http://www.w3.org/2000/svg">
  <path
     d="M 9.25,12 A 0.75,0.75 0 0 1 9.03,12.53 L 6.28,15.28 A 0.75,0.75 0 0 1 5.22,14.22 L 7.44,12 5.22,9.78 A 0.75,0.75 0 1 1 6.28,8.72 l 2.75,2.75 c 0.141,0.14 0.22,0.331 0.22,0.53 z m 2,2 a 0.75,0.75 0 0 0 0,1.5 h 5 a 0.75,0.75 0 0 0 0,-1.5 z"
     style="fill:#ffffff" />
  <path
     d="M 0,4.75 C 0,3.784 0.71866667,3 1.6041667,3 H 20.395833 C 21.281333,3 22,3.784 22,4.75 v 14.5 A 1.6041667,1.75 0 0 1 20.395833,21 H 1.6041667 A 1.6041667,1.75 0 0 1 0,19.25 Z M 1.6041667,4.5 A 0.22916667,0.25 0 0 0 1.375,4.75 v 14.5 c 0,0.138 0.1026667,0.25 0.2291667,0.25 H 20.395833 A 0.22916667,0.25 0 0 0 20.625,19.25 V 4.75 A 0.22916667,0.25 0 0 0 20.395833,4.5 Z"
     style="stroke-width:1.0;fill:#ffffff" />
</svg>
