<svg width="22" height="22" version="1.1" viewBox="0 0 22 22" xmlns="http://www.w3.org/2000/svg">
  <path fill="#ffffff" style="stroke:#ffffff;stroke-width:2.5" d="m 9.333333,13.083333 c 0,-2.5 0,-5 0,-7.5 m 3.75,3.75 c -2.5,0 -5,0 -7.5,0"/>
  <path fill="#ffffff" d="m 13.291667,13.291667 c 0.414423,0.992968 0.442728,2.208684 1.146507,3.039919 0.902393,0.960173 1.778475,1.945581 2.711566,2.876513 1.156303,0.690615 2.645116,-0.707324 2.107337,-1.916448 -0.505521,-0.717702 -1.246128,-1.239668 -1.862766,-1.865293 -0.487139,-0.431823 -0.94001,-0.922846 -1.448378,-1.317994 -0.884755,-0.272232 -1.769511,-0.544465 -2.654266,-0.816697 z M 9.333333,2.666667 C 5.267789,2.480853 1.836686,6.805789 2.795352,10.726353 c 0.437401,2.265167 2.173964,4.157224 4.353322,4.874797 2.153451,0.793359 4.6897,0.389667 6.440769,-1.112536 3.191068,-2.47398 3.187448,-7.995849 -0.112044,-10.37746 C 12.311664,3.180957 10.824662,2.662773 9.333333,2.666667 Z m 0,1.666666 c 3.209943,-0.154666 5.869745,3.457496 4.776682,6.477601 -0.801622,3.1113 -5.038001,4.588656 -7.599894,2.649077 C 3.773772,11.775177 3.614969,7.290874 6.225283,5.416698 7.099583,4.719052 8.214837,4.330412 9.333333,4.333333 Z"/>
</svg>
