<svg xmlns="http://www.w3.org/2000/svg" width="22" height="22" version="1.1">
  <g transform="matrix(1.9967546,0,0,1.4285714,-4.9740367,-0.4285714)">
    <path
       d="M 4.49,8.994 A 0.5,0.5 0 0 0 4.084,9.223 l -1,1.5 a 0.5,0.5 0 1 0 0.832,0.554 l 1,-1.5 A 0.5,0.5 0 0 0 4.49,8.994 Z m 7.004,0 a 0.5,0.5 0 0 0 -0.41,0.783 l 1,1.5 a 0.5,0.5 0 1 0 0.832,-0.554 l -1,-1.5 A 0.5,0.5 0 0 0 11.494,8.994 Z"
       fill="#000000" />
    <path
       d="M 7,1 V 6.563 L 5.719,5.28 A 1.015,1.015 0 0 0 5,5 H 4 v 1 c 0,0.265 0.093,0.53 0.281,0.719 l 3,3 L 7.563,10 h 0.875 l 0.28,-0.281 3,-3 C 11.908,6.53 12,6.265 12,6 V 5 H 11 C 10.735,5 10.47,5.093 10.281,5.281 L 9,6.563 V 1 Z"
       fill="#000000" />
    <path
       d="m 3,11 v 4 h 10 v -4 z m 3.344,1.438 a 0.651,0.651 0 0 1 0.062,0 c 0.291,-0.056 0.6,0.203 0.594,0.5 V 13 H 9 V 12.937 A 0.52,0.52 0 0 1 9.5,12.43 0.52,0.52 0 0 1 10,12.937 V 13 c 0,0.545 -0.455,1 -1,1 H 7 C 6.455,14 6,13.545 6,13 v -0.063 a 0.515,0.515 0 0 1 0.344,-0.5 z"
       fill="#000000" />
  </g>
</svg>
