<svg width="22" height="22" version="1.1" viewBox="0 0 22 22" xmlns="http://www.w3.org/2000/svg">
<path d="M 21,12.09375 V 9.81696 L 18.23214,8.90179 17.58482,7.33929 18.83482,4.70536 17.22768,3.09821 14.63839,4.39286 13.07589,3.74554 12.09375,1 H 9.81696 L 8.92411,3.76786 7.33929,4.41518 4.70536,3.16518 3.09821,4.77232 4.39286,7.36161 3.74554,8.92411 1,9.90625 v 2.27679 l 2.76786,0.91517 0.64732,1.5625 -1.25,2.63393 1.60714,1.60715 2.58929,-1.29465 1.5625,0.64732 L 9.90625,21 h 2.27679 l 0.89285,-2.76786 1.58482,-0.64732 2.63393,1.25 1.60715,-1.60714 -1.31697,-2.58929 0.66964,-1.5625 z M 11,15.28571 C 8.63393,15.28571 6.71429,13.36607 6.71429,11 6.71429,8.63393 8.63393,6.71429 11,6.71429 c 2.36607,0 4.28571,1.91964 4.28571,4.28571 0,2.36607 -1.91964,4.28571 -4.28571,4.28571 z"
  fill="#000000"/>
</svg>
