<svg width="22" height="22" version="1.1" viewBox="0 0 22 22" xmlns="http://www.w3.org/2000/svg">
<g transform="matrix(0.03610263,0,0,0.03610256,-0.05963795,0.54078629)">
  <path d="M 570.999,265.218 330.862,25.083 c -13.843,-13.834 -36.287,-13.834 -50.112,0 l -49.87,49.845 63.265,63.286 c 14.68,-4.968 31.545,-1.654 43.27,10.055 11.791,11.812 15.086,28.809 9.959,43.574 l 60.999,60.949 c 14.722,-5.067 31.755,-1.799 43.542,10.02 16.487,16.448 16.487,43.104 0,59.601 -16.493,16.457 -43.125,16.457 -59.622,0 -12.378,-12.401 -15.458,-30.6 -9.16,-45.868 L 326.258,219.698 V 369.32 c 4.046,2.002 7.831,4.649 11.157,7.984 16.426,16.446 16.426,43.104 0,59.608 -16.482,16.488 -43.159,16.488 -59.601,0 -16.484,-16.505 -16.484,-43.162 0,-59.608 4.064,-4.076 8.758,-7.152 13.794,-9.217 V 217.094 c -5.036,-2.064 -9.72,-5.116 -13.794,-9.197 -12.487,-12.458 -15.479,-30.779 -9.08,-46.095 L 206.381,99.459 41.723,264.113 c -13.847,13.834 -13.847,36.261 0,50.083 l 240.146,240.176 c 13.809,13.781 36.246,13.781 50.109,0 l 239.021,-239.07 c 13.785,-13.827 13.785,-36.263 0,-50.084 z"
   style="stroke:#444444;stroke-width:4;stroke-miterlimit:10"
   fill="#f05133"/>
</g>
<g transform="matrix(0.02552842,0.02552837,-0.02552842,0.02552837,-0.05963795,0.54078629)"
   style="fill:#ffffff;stroke-width:4">
   <path d="m 290.35504,77.843121 c -5e-5,1.29808 -0.11805,2.891078 -0.354,4.779 -0.23605,1.770074 -0.70805,3.717072 -1.416,5.841 -1.41605,-0.589929 -3.18604,-1.120929 -5.31,-1.593 -2.00604,-0.471928 -3.95304,-0.707927 -5.841,-0.708 -1.65204,7.3e-5 -3.24503,0.354072 -4.779,1.062 -1.41603,0.590071 -2.71403,1.94707 -3.894,4.071 -1.18003,2.006065 -2.12403,5.015062 -2.832,9.026999 -0.70802,4.01206 -1.06202,9.38105 -1.062,16.107 -2e-5,5.07404 0.17698,9.32203 0.531,12.744 0.35397,3.42203 0.94397,6.19502 1.77,8.319 0.94397,2.12402 2.18297,3.65802 3.717,4.602 1.53397,0.82602 3.48097,1.23902 5.841,1.239 1.88796,2e-5 3.89396,-0.23598 6.018,-0.708 2.12396,-0.47198 3.89395,-1.06198 5.31,-1.77 0.58995,2.24202 1.00295,4.18901 1.239,5.841 0.23595,1.53401 0.35395,3.06801 0.354,4.602 -5e-5,2.95001 -1.82905,5.31 -5.487,7.08 -3.54004,1.652 -8.14204,2.478 -13.806,2.478 -4.60203,0 -8.55502,-0.59 -11.859,-1.77 -3.30401,-1.18 -6.01801,-3.363 -8.142,-6.549 -2.12401,-3.18599 -3.71701,-7.61099 -4.779,-13.275 -0.944,-5.78197 -1.416,-13.27497 -1.416,-22.479 0,-10.61995 0.944,-19.056938 2.832,-25.310999 1.88799,-6.371926 4.30699,-11.209922 7.257,-14.514 3.06798,-3.421915 6.48998,-5.604913 10.266,-6.549 3.77597,-1.061911 7.49297,-1.59291 11.151,-1.593 4.36596,9e-5 7.90596,0.826089 10.62,2.478 2.71395,1.534086 4.07095,3.717084 4.071,6.549"
      style="stroke:#423f37;stroke-width:4"/>
   <path d="m 292.18588,114.65912 c 0,-16.047939 2.537,-27.670927 7.611,-34.868999 5.07399,-7.315914 12.33098,-10.97391 21.771,-10.974 4.71997,9e-5 8.79096,0.708089 12.213,2.124 3.53996,1.298086 6.43095,3.658084 8.673,7.08 2.24195,3.422077 3.89395,8.024073 4.956,13.806 1.17994,5.782061 1.76994,13.157049 1.77,22.124999 -6e-5,8.49604 -0.64906,15.75303 -1.947,21.771 -1.18005,5.90002 -3.00905,10.73801 -5.487,14.514 -2.36005,3.65801 -5.36904,6.372 -9.027,8.142 -3.65804,1.652 -7.84703,2.478 -12.567,2.478 -4.83802,0 -9.02702,-0.59 -12.567,-1.77 -3.42201,-1.062 -6.31301,-3.186 -8.673,-6.372 -2.242,-3.30399 -3.953,-7.96499 -5.133,-13.983 -1.062,-6.13597 -1.593,-14.15996 -1.593,-24.072 m 21.771,-0.177 c -2e-5,6.96204 0.11798,12.44903 0.354,16.461 0.35398,3.89402 0.76698,6.84402 1.239,8.85 0.58998,2.00602 1.29798,3.30402 2.124,3.894 0.94397,0.47202 1.94697,0.70802 3.009,0.708 0.82597,2e-5 1.65197,-0.23598 2.478,-0.708 0.82597,-0.58998 1.53397,-1.88798 2.124,-3.894 0.58997,-2.12398 1.06197,-5.13297 1.416,-9.027 0.47197,-4.01197 0.70797,-9.43996 0.708,-16.284 -3e-5,-6.37195 -0.11803,-11.44594 -0.354,-15.221999 -0.11803,-3.775937 -0.47203,-6.666934 -1.062,-8.673 -0.47203,-2.00593 -1.12103,-3.303929 -1.947,-3.894 -0.82603,-0.589927 -1.88803,-0.884927 -3.186,-0.885 -0.94403,7.3e-5 -1.88803,0.354073 -2.832,1.062 -0.82602,0.590071 -1.53402,1.88807 -2.124,3.894 -0.59002,2.006066 -1.06202,4.897063 -1.416,8.673 -0.35402,3.776059 -0.53102,8.791049 -0.531,15.044999"
     style="stroke:#423f37"/>
  <path d="m 377.42245,155.54612 c -3e-5,0.944 -0.11803,1.652 -0.354,2.124 -0.23603,0.472 -1.00303,0.826 -2.301,1.062 -1.18003,0.118 -3.12702,0.236 -5.841,0.354 -2.59602,0 -6.37201,0 -11.328,0 V 37.664121 c -1e-5,-2.123877 0.23599,-3.775875 0.708,-4.956 0.58999,-1.179873 1.59299,-2.005872 3.009,-2.478 1.53399,-0.589871 3.59898,-0.943871 6.195,-1.062 2.59598,-0.11787 5.89997,-0.17687 9.912,-0.177 V 155.54612"
     style="stroke:#423f37"/>
  <path d="m 387.11043,80.144121 c 0,-1.06192 0.177,-2.182919 0.531,-3.363 0.472,-1.297917 1.121,-2.241916 1.947,-2.832 1.29799,-0.943914 4.24799,-2.005913 8.85,-3.186 4.60198,-1.297911 10.44297,-1.94691 17.523,-1.947 8.14196,9e-5 13.86495,1.593088 17.169,4.779 3.42195,3.186082 5.13295,8.791076 5.133,16.815 v 8.319 c -5e-5,5.074059 -5e-5,10.266049 0,15.575999 -5e-5,5.31004 -0.0591,10.44303 -0.177,15.399 -5e-5,4.95603 -0.0591,9.61702 -0.177,13.983 -0.11805,4.36601 -0.29505,8.20101 -0.531,11.505 -3.06805,1.77 -6.78505,3.127 -11.151,4.071 -4.24804,1.062 -9.02703,1.593 -14.337,1.593 -3.30402,0 -6.49002,-0.295 -9.558,-0.885 -2.95002,-0.59 -5.60501,-1.829 -7.965,-3.717 -2.24201,-1.88799 -4.07101,-4.66099 -5.487,-8.319 -1.416,-3.65798 -2.124,-8.55498 -2.124,-14.691 0,-6.01797 0.531,-10.91496 1.593,-14.691 1.17999,-3.89395 2.71399,-6.90295 4.602,-9.027 1.88799,-2.12395 4.07099,-3.53995 6.549,-4.248 2.47798,-0.82594 5.01498,-1.23894 7.611,-1.239 1.29798,6e-5 3.06797,0.17706 5.31,0.531 2.35997,0.35405 4.36597,1.06205 6.018,2.124 V 94.481121 c -3e-5,-2.359933 -0.59003,-4.011932 -1.77,-4.956 -1.06203,-1.06193 -2.95003,-1.592929 -5.664,-1.593 -3.30402,7.1e-5 -6.96202,0.35407 -10.974,1.062 -3.89401,0.708069 -7.31601,1.593068 -10.266,2.655 -1.062,-2.005931 -1.77,-4.070929 -2.124,-6.195 -0.354,-2.123925 -0.531,-3.893923 -0.531,-5.31 m 31.329,39.824999 c -0.59003,-0.58996 -1.35703,-0.94396 -2.301,-1.062 -0.82603,-0.23596 -1.59303,-0.35396 -2.301,-0.354 -2.00603,4e-5 -3.54003,0.94404 -4.602,2.832 -1.06202,1.88804 -1.59302,5.66403 -1.593,11.328 -2e-5,4.24802 0.35398,7.31602 1.062,9.204 0.82597,1.77002 2.35997,2.65502 4.602,2.655 0.82597,2e-5 1.65197,-0.11798 2.478,-0.354 0.94397,-0.35398 1.71097,-0.82598 2.301,-1.416 0.11797,-0.94398 0.17697,-2.30098 0.177,-4.071 0.11797,-1.88798 0.17697,-3.89398 0.177,-6.018 -3e-5,-2.12397 -3e-5,-4.30697 0,-6.549 -3e-5,-2.24196 -3e-5,-4.30696 0,-6.195"
    style="stroke:#423f37"/>
</g>
</svg>
