<?xml version="1.0" encoding="utf-8"?>
<!-- Generator: Adobe Illustrator 14.0.0, SVG Export Plug-In . SVG Version: 6.00 Build 43363)  -->
<!DOCTYPE svg PUBLIC "-//W3C//DTD SVG 1.1 Tiny//EN" "http://www.w3.org/Graphics/SVG/1.1/DTD/svg11-tiny.dtd">
<svg version="1.1" baseProfile="tiny" id="Layer_1" xmlns="http://www.w3.org/2000/svg" xmlns:xlink="http://www.w3.org/1999/xlink"
	 x="0px" y="0px" width="612px" height="578.313px" viewBox="0 0 612 578.313" xml:space="preserve">
<g>
	<path fill="#F05133" stroke="#444444" stroke-width="4" stroke-miterlimit="10" d="M570.999,265.218L330.862,25.083
		c-13.843-13.834-36.287-13.834-50.112,0l-49.87,49.845l63.265,63.286c14.68-4.968,31.545-1.654,43.27,10.055
		c11.791,11.812,15.086,28.809,9.959,43.574l60.999,60.949c14.722-5.067,31.755-1.799,43.542,10.02
		c16.487,16.448,16.487,43.104,0,59.601c-16.493,16.457-43.125,16.457-59.622,0c-12.378-12.401-15.458-30.6-9.16-45.868
		l-56.875-56.847v149.622c4.046,2.002,7.831,4.649,11.157,7.984c16.426,16.446,16.426,43.104,0,59.608
		c-16.482,16.488-43.159,16.488-59.601,0c-16.484-16.505-16.484-43.162,0-59.608c4.064-4.076,8.758-7.152,13.794-9.217V217.094
		c-5.036-2.064-9.72-5.116-13.794-9.197c-12.487-12.458-15.479-30.779-9.08-46.095l-62.353-62.343L41.723,264.113
		c-13.847,13.834-13.847,36.261,0,50.083l240.146,240.176c13.809,13.781,36.246,13.781,50.109,0l239.021-239.07
		C584.784,301.475,584.784,279.039,570.999,265.218z"/>
</g>
<g>
	<path fill="#FFFFFF" d="M84.095,319.454c-5.314-2.636-9.768-5.75-13.36-9.342c-3.571-3.572-5.919-7.568-7.046-11.989
		s-1.059-8.816,0.207-13.185c1.265-4.368,3.694-8.348,7.287-11.941c5.399-5.399,11.643-8.126,18.732-8.178
		c7.089-0.054,13.121,2.407,18.094,7.38c3.678,3.678,6.877,8.259,9.598,13.743l-5.707,5.707c-2.253-6.036-5.018-10.692-8.291-13.965
		c-2.168-2.168-4.746-3.672-7.731-4.512c-2.987-0.84-6.139-0.644-9.455,0.589c-3.316,1.233-6.175,3.051-8.577,5.453
		c-3.21,3.21-5.267,7.275-6.17,12.196c-0.904,4.921,0.792,9.528,5.086,13.822c1.296,1.296,2.662,2.481,4.097,3.555
		c1.434,1.074,4.416,2.727,8.944,4.959L84.095,319.454z"/>
	<path fill="#FFFFFF" d="M105.952,345.329c-5.096-5.097-7.395-10.955-6.892-17.573c0.502-6.618,3.464-12.638,8.885-18.059
		c5.42-5.42,11.434-8.376,18.042-8.869c6.607-0.492,12.461,1.812,17.557,6.908c5.075,5.075,7.367,10.917,6.875,17.525
		c-0.493,6.607-3.448,12.622-8.868,18.043c-5.42,5.42-11.441,8.381-18.059,8.884C116.874,352.69,111.027,350.404,105.952,345.329z
		 M110.895,340.387c3.163,3.162,6.91,4.444,11.243,3.846c4.334-0.598,8.658-3.054,12.974-7.369
		c4.293-4.294,6.739-8.607,7.337-12.941c0.598-4.333-0.684-8.081-3.846-11.243c-3.184-3.184-6.942-4.477-11.275-3.879
		c-4.333,0.599-8.648,3.045-12.941,7.338c-4.315,4.315-6.771,8.641-7.37,12.974C106.417,333.444,107.711,337.203,110.895,340.387z"
		/>
	<path fill="#FFFFFF" d="M141.042,378.441l46.521-46.521l-10.649-10.649l4.942-4.942l16.58,16.58l-46.521,46.521l11.128,11.128
		l-4.942,4.942L141.042,378.441z"/>
	<path fill="#FFFFFF" d="M202.043,423.507c-4.772,1.157-9.181,1.216-13.225,0.178c-4.043-1.037-7.129-2.619-9.256-4.746
		c-2.977-2.977-4.364-6.936-4.163-11.879c0.201-4.942,2.917-10.028,8.146-15.258c4.124-4.124,8.594-7.02,13.41-8.687
		c4.816-1.667,9.485-2.121,14.005-1.363c4.52,0.757,8.727,3.083,12.622,6.979c1.128,1.127,2.709,2.943,4.746,5.446
		c0.296,0.382,0.753,0.944,1.368,1.688l5.949,5.949l-25.15,25.15c-4.297,4.297-7.329,8.242-9.094,11.836l-6.186-6.186
		C196.684,430.189,198.959,427.153,202.043,423.507z M209.161,416.436l15.292-15.291c-1.555-2.661-3.237-4.897-5.046-6.706
		c-3.663-3.663-8.128-5.298-13.397-4.905c-5.27,0.393-10.34,3.025-15.213,7.898c-3.533,3.533-5.534,6.864-6,9.994
		c-0.468,3.129,0.15,5.545,1.854,7.249c1.852,1.852,4.832,2.959,8.941,3.322C199.699,418.36,204.222,417.84,209.161,416.436z"/>
</g>
</svg>
