<?xml version="1.0" encoding="UTF-8" standalone="no"?>
<!-- Created with Inkscape (http://www.inkscape.org/) -->

<svg
   xmlns:dc="http://purl.org/dc/elements/1.1/"
   xmlns:cc="http://creativecommons.org/ns#"
   xmlns:rdf="http://www.w3.org/1999/02/22-rdf-syntax-ns#"
   xmlns:svg="http://www.w3.org/2000/svg"
   xmlns="http://www.w3.org/2000/svg"
   xmlns:xlink="http://www.w3.org/1999/xlink"
   xmlns:sodipodi="http://sodipodi.sourceforge.net/DTD/sodipodi-0.dtd"
   xmlns:inkscape="http://www.inkscape.org/namespaces/inkscape"
   width="48.000000px"
   height="48.000000px"
   id="svg53383"
   sodipodi:version="0.32"
   inkscape:version="0.48.2 r9819"
   sodipodi:docname="applications-system.svg"
   inkscape:output_extension="org.inkscape.output.svg.inkscape"
   version="1.1">
  <defs
     id="defs3">
    <inkscape:perspective
       sodipodi:type="inkscape:persp3d"
       inkscape:vp_x="0 : 24 : 1"
       inkscape:vp_y="0 : 1000 : 0"
       inkscape:vp_z="48 : 24 : 1"
       inkscape:persp3d-origin="24 : 16 : 1"
       id="perspective31" />
    <linearGradient
       id="linearGradient3264">
      <stop
         style="stop-color:#c9c9c9;stop-opacity:1;"
         offset="0"
         id="stop3266" />
      <stop
         id="stop3276"
         offset="0.25"
         style="stop-color:#f8f8f8;stop-opacity:1;" />
      <stop
         id="stop3272"
         offset="0.5"
         style="stop-color:#e2e2e2;stop-opacity:1;" />
      <stop
         style="stop-color:#b0b0b0;stop-opacity:1;"
         offset="0.75"
         id="stop3274" />
      <stop
         style="stop-color:#c9c9c9;stop-opacity:1;"
         offset="1"
         id="stop3268" />
    </linearGradient>
    <linearGradient
       inkscape:collect="always"
       xlink:href="#linearGradient3264"
       id="linearGradient3281"
       gradientUnits="userSpaceOnUse"
       x1="14.462892"
       y1="12.284524"
       x2="34.534348"
       y2="39.684914"
       gradientTransform="matrix(1.241935,0,0,1.241935,-5.027508,-7.208988)" />
    <linearGradient
       id="linearGradient2300">
      <stop
         id="stop2302"
         offset="0.0000000"
         style="stop-color:#000000;stop-opacity:0.32673267;" />
      <stop
         id="stop2304"
         offset="1"
         style="stop-color:#000000;stop-opacity:0;" />
    </linearGradient>
    <linearGradient
       id="aigrd1"
       gradientUnits="userSpaceOnUse"
       x1="99.7773"
       y1="15.4238"
       x2="153.0005"
       y2="248.6311">
      <stop
         offset="0"
         style="stop-color:#184375"
         id="stop53300" />
      <stop
         offset="1"
         style="stop-color:#C8BDDC"
         id="stop53302" />
    </linearGradient>
    <linearGradient
       inkscape:collect="always"
       xlink:href="#aigrd1"
       id="linearGradient53551"
       gradientUnits="userSpaceOnUse"
       x1="99.7773"
       y1="15.4238"
       x2="153.0005"
       y2="248.6311"
       gradientTransform="matrix(0.200685,0.000000,0.000000,0.200685,-0.585758,-1.050787)" />
    <radialGradient
       gradientUnits="userSpaceOnUse"
       r="11.689870"
       fy="72.568001"
       fx="14.287618"
       cy="68.872971"
       cx="14.287618"
       gradientTransform="matrix(1.399258,-2.234445e-7,8.196178e-8,0.513264,4.365074,4.839285)"
       id="radialGradient2308"
       xlink:href="#linearGradient2300"
       inkscape:collect="always" />
    <linearGradient
       inkscape:collect="always"
       xlink:href="#linearGradient3264"
       id="linearGradient3760"
       gradientUnits="userSpaceOnUse"
       gradientTransform="matrix(1.241935,0,0,1.241935,-5.027508,-7.208988)"
       x1="14.462892"
       y1="12.284524"
       x2="34.534348"
       y2="39.684914" />
  </defs>
  <sodipodi:namedview
     inkscape:showpageshadow="false"
     id="base"
     pagecolor="#ffffff"
     bordercolor="#666666"
     borderopacity="0.11764706"
     inkscape:pageopacity="0.0"
     inkscape:pageshadow="2"
     inkscape:zoom="5.6568542"
     inkscape:cx="6.8631081"
     inkscape:cy="21.164787"
     inkscape:current-layer="layer1"
     showgrid="false"
     inkscape:grid-bbox="true"
     inkscape:document-units="px"
     inkscape:window-width="1064"
     inkscape:window-height="830"
     inkscape:window-x="142"
     inkscape:window-y="74"
     inkscape:window-maximized="0" />
  <metadata
     id="metadata4">
    <rdf:RDF>
      <cc:Work
         rdf:about="">
        <dc:format>image/svg+xml</dc:format>
        <dc:type
           rdf:resource="http://purl.org/dc/dcmitype/StillImage" />
        <dc:title></dc:title>
        <dc:creator>
          <cc:Agent>
            <dc:title>Jakub Steiner</dc:title>
          </cc:Agent>
        </dc:creator>
        <dc:source>http://jimmac.musichall.cz/</dc:source>
        <dc:subject>
          <rdf:Bag>
            <rdf:li>system</rdf:li>
            <rdf:li>applications</rdf:li>
            <rdf:li>group</rdf:li>
            <rdf:li>category</rdf:li>
            <rdf:li>admin</rdf:li>
            <rdf:li>root</rdf:li>
          </rdf:Bag>
        </dc:subject>
        <cc:license
           rdf:resource="http://creativecommons.org/licenses/publicdomain/" />
      </cc:Work>
      <cc:License
         rdf:about="http://creativecommons.org/licenses/publicdomain/">
        <cc:permits
           rdf:resource="http://creativecommons.org/ns#Reproduction" />
        <cc:permits
           rdf:resource="http://creativecommons.org/ns#Distribution" />
        <cc:permits
           rdf:resource="http://creativecommons.org/ns#DerivativeWorks" />
      </cc:License>
    </rdf:RDF>
  </metadata>
  <g
     inkscape:label="shadow"
     id="layer2"
     inkscape:groupmode="layer" />
  <g
     id="layer1"
     inkscape:label="Layer 1"
     inkscape:groupmode="layer">
    <path
       inkscape:r_cy="true"
       inkscape:r_cx="true"
       style="color:#000000;fill:#000000;stroke:#404040;marker:none;visibility:visible;display:inline;overflow:visible;stroke-opacity:1;fill-opacity:0.49315068000000001"
       d="m 22.876301,1.4777993 c -0.473174,0.03238 -0.933087,0.105662 -1.397851,0.158847 l -0.03177,0 -1.111928,6.067951 c -1.812354,0.412737 -3.517413,1.11319 -5.051331,2.065009 L 10.29563,6.1796673 c -1.3483323,1.046804 -2.5753013,2.267668 -3.6534793,3.589939 l 3.4628623,5.0513307 c -1.0514223,1.606783 -1.8420833,3.441487 -2.2873953,5.369025 -7.6e-5,0.0091 -6.2e-5,0.03018 0,0.03177 l -6.0361806,0.953081 c -0.110357,0.901369 -0.158847,1.832904 -0.158847,2.763936 0,0.761753 0.02103,1.513329 0.09531,2.255625 l 6.0361816,1.080159 c 0.429297,2.096161 1.244809,4.053785 2.3827033,5.782026 l -3.5899403,4.924254 c 1.028135,1.276384 2.215105,2.43848 3.4946323,3.462861 l 5.0831,-3.494631 c 1.776475,1.133244 3.759545,1.927892 5.909103,2.319165 l 0.953082,6.004411 c 0.677253,0.06165 1.371774,0.06354 2.065008,0.06354 0.978685,-1e-6 1.913521,-0.03709 2.859245,-0.158847 l 1.143697,-6.131489 c 2.040927,-0.507904 3.958179,-1.388998 5.62318,-2.573319 l 4.892483,3.55817 c 1.26877,-1.079445 2.428987,-2.320188 3.431093,-3.653479 l -3.558172,-5.14664 c 0.963606,-1.664197 1.631298,-3.500366 1.969701,-5.464333 l 6.004412,-0.953081 c 0.05266,-0.62659 0.06354,-1.234265 0.06354,-1.874393 0,-1.1124 -0.129295,-2.203101 -0.285924,-3.272246 l -6.09972,-1.111928 c -0.478008,-1.76508 -1.262312,-3.41188 -2.255625,-4.892484 l 3.589939,-4.9242527 c -1.112765,-1.360855 -2.382122,-2.617981 -3.780556,-3.685248 l -5.178408,3.55817 c -1.488329,-0.880227 -3.089981,-1.555613 -4.828947,-1.937931 l -0.953081,-6.036182 c -0.867481,-0.102044 -1.742102,-0.158847 -2.636859,-0.158847 -0.241826,0 -0.490706,-0.0076 -0.730696,0 -0.116995,0.0037 -0.232771,-0.0068 -0.349463,0 -0.03161,0.0018 -0.06376,-0.0022 -0.09531,0 z m 0.826004,15.4399167 c 0.116063,-0.0059 0.231944,0 0.349463,0 3.760607,0 6.830417,3.06981 6.830417,6.830416 1e-6,3.760605 -3.069811,6.798646 -6.830417,6.798646 -3.760604,1e-6 -6.798645,-3.038041 -6.798645,-6.798646 1e-6,-3.643086 2.851212,-6.647839 6.449182,-6.830416 z"
       id="path3243"
       inkscape:connector-curvature="0" />
  </g>
</svg>
