<svg width="22" height="22" version="1.1" viewBox="0 0 22 22" xmlns="http://www.w3.org/2000/svg">
<path d="M 7.66667,12.25 H 6 V 11 h 1.66667 z m 0,-3.75 H 6 v 1.25 h 1.66667 z m 0,-2.5 H 6 v 1.25 h 1.66667 z m 0,-2.5 H 6 V 4.75 H 7.66667 Z M 21,2.25 v 15 c 0,0.68359 -0.75521,1.25 -1.66667,1.25 H 11 V 21 L 8.5,19.125 6,21 V 18.5 H 2.66667 C 1.75521,18.5 1,17.93359 1,17.25 v -15 C 1,1.56641 1.75521,1 2.66667,1 H 19.33333 C 20.24479,1 21,1.56641 21,2.25 Z m -1.66667,12.5 H 2.66667 v 2.5 H 6 V 16 h 5 v 1.25 h 8.33333 z m 0,-12.5 h -15 V 13.5 h 15 z"
  fill="#000000"/>
</svg>
