<svg width="22" height="22" version="1.1" viewBox="0 0 22 22" xmlns="http://www.w3.org/2000/svg">
<path fill="#000000" d="M 9.3339844 2.6660156 C 5.2684404 2.4802016 1.8362559 6.8059985 2.7949219 10.726562 C 3.2323229 12.991729 4.9690795 14.883989 7.1484375 15.601562 C 9.3018885 16.394921 11.838775 15.990484 13.589844 14.488281 C 13.608999 14.473431 13.625607 14.456475 13.644531 14.441406 C 13.818899 15.125344 13.992673 15.80965 14.443359 16.337891 C 15.343838 17.295984 16.219183 18.280163 17.150391 19.208984 C 18.293239 19.89853 19.786798 18.513912 19.255859 17.310547 C 18.776559 16.522207 17.925602 16.038924 17.316406 15.353516 C 16.692528 14.837467 16.198025 14.065281 15.351562 13.925781 L 14.447266 13.646484 C 16.737016 10.925965 16.443623 6.2529861 13.476562 4.1113281 C 12.310828 3.1811311 10.825313 2.6621216 9.3339844 2.6660156 z M 9.3339844 4.3339844 C 12.543927 4.1793184 15.202438 7.7904419 14.109375 10.810547 C 13.307753 13.921847 9.0716586 15.400517 6.5097656 13.460938 C 3.7734166 11.776103 3.6142954 7.2901916 6.2246094 5.4160156 C 7.0989094 4.7183696 8.2154884 4.3310634 9.3339844 4.3339844 z "/>
<path d="m 13.083333,9.333333 c -2.5,0 -5,0 -7.5,0" style="stroke:#000000;stroke-width:2.5" />
</svg>
